<svg id="vinduer" xmlns="http://www.w3.org/2000/svg" viewBox="0 0 795.66 596.28"><defs><style>.cls-1{fill:#d3e2df;}.cls-2{fill:#4c321f;}.cls-11,.cls-12,.cls-14,.cls-15,.cls-16,.cls-17,.cls-18,.cls-2,.cls-4{stroke:#231f20;stroke-miterlimit:10;}.cls-3{fill:#7f5b39;}.cls-4{fill:#703e1b;}.cls-5{fill:#eaefee;}.cls-18,.cls-6{fill:#c3cecc;}.cls-7{fill:#936947;}.cls-8{fill:#394747;}.cls-9{fill:#9fa8ad;}.cls-10{fill:#404f24;}.cls-11,.cls-12{fill:none;}.cls-12{stroke-width:3px;}.cls-13{fill:#fff;}.cls-14{fill:#664525;}.cls-15{fill:#4f381c;}.cls-16{fill:#231f20;}.cls-17{fill:#775236;}.cls-19{fill:#c5b98d;}.cls-20{fill:#a0caec;}.cls-21{fill:#063451;}.cls-22{fill:#da1f26;}.cls-23{fill:#b62025;}.cls-24{fill:#c6c6c5;}.cls-25{fill:#e2e2e2;}.cls-26{fill:#717373;}.cls-27{fill:#d6d063;}</style></defs><title>recetion</title><rect class="cls-1" x="0.5" y="44.55" width="794.66" height="346.32"/><polygon class="cls-2" points="753.67 236.13 699.98 454.03 715.77 454.03 773.67 236.13 753.67 236.13"/><rect class="cls-3" x="35.76" y="107.71" width="105.27" height="283.16"/><polygon class="cls-2" points="47.34 236.13 67.34 236.13 121.03 454.03 105.24 454.03 47.34 236.13"/><polyline class="cls-4" points="88.46 390.87 0.5 390.87 0.5 595.78 795.16 595.78 795.16 390.87 88.46 390.87"/><rect class="cls-5" x="649.42" y="84.33" width="74.32" height="112.43"/><rect class="cls-5" x="212.76" y="84.33" width="74.33" height="112.43"/><rect class="cls-6" x="0.5" y="0.5" width="794.66" height="44.05"/><path class="cls-7" d="M753.17,235.63l-53.69,217.9H120.53L66.84,235.63H753.17Zm-269.49,179V297.64h-161V414.58Z" transform="translate(0.5 0.5)"/><rect class="cls-8" x="519.03" y="196.76" width="65.39" height="39.37"/><rect class="cls-9" x="397.83" y="106.86" width="108.75" height="66.96"/><rect class="cls-10" x="323.13" y="298.14" width="161.05" height="116.94"/><rect class="cls-8" x="314.6" y="194.69" width="83.23" height="41.44"/><polyline class="cls-11" points="0.5 44.55 0.5 390.87 35.76 390.87"/><polyline class="cls-11" points="732.55 390.87 795.16 390.87 795.16 44.55"/><rect class="cls-11" x="0.5" y="0.5" width="794.66" height="44.05"/><polyline class="cls-11" points="88.46 390.87 35.76 390.87 35.76 107.71 141.03 107.71 141.03 236.13"/><line class="cls-11" x1="84.13" y1="374.01" x2="85.7" y2="379.54"/><line class="cls-11" x1="79.23" y1="355.95" x2="80.65" y2="361.48"/><line class="cls-11" x1="74.52" y1="338.03" x2="76.26" y2="344.08"/><line class="cls-11" x1="69.95" y1="320.86" x2="71.47" y2="326.12"/><line class="cls-11" x1="65.18" y1="302.97" x2="66.67" y2="308.86"/><line class="cls-11" x1="60.77" y1="285.76" x2="62.52" y2="292.34"/><line class="cls-11" x1="56.33" y1="269.46" x2="57.79" y2="274.49"/><line class="cls-11" x1="51.46" y1="251.66" x2="52.98" y2="257.37"/><polyline class="cls-11" points="67.34 236.13 47.34 236.13 48.3 239.86"/><polyline class="cls-11" points="102.8 444.83 105.24 454.03 121.03 454.03"/><line class="cls-11" x1="98.07" y1="427.06" x2="99.34" y2="431.81"/><line class="cls-11" x1="93.42" y1="409.17" x2="94.76" y2="414.49"/><line class="cls-11" x1="88.46" y1="390.87" x2="90.23" y2="396.79"/><polyline class="cls-11" points="753.67 236.13 773.67 236.13 772.71 239.86"/><polyline class="cls-11" points="718.31 444.47 715.77 454.03 699.98 454.03"/><line class="cls-11" x1="723.18" y1="426.68" x2="721.68" y2="431.81"/><line class="cls-11" x1="727.73" y1="408.91" x2="726.16" y2="414.83"/><line class="cls-11" x1="732.55" y1="390.87" x2="730.78" y2="396.79"/><line class="cls-11" x1="737.1" y1="373.72" x2="735.52" y2="378.96"/><line class="cls-11" x1="741.81" y1="356.03" x2="740.36" y2="361.48"/><line class="cls-11" x1="746.31" y1="338.31" x2="744.75" y2="344.08"/><line class="cls-11" x1="751.04" y1="320.9" x2="749.54" y2="326.12"/><line class="cls-11" x1="755.93" y1="302.9" x2="754.34" y2="308.86"/><line class="cls-11" x1="760.41" y1="285.48" x2="758.68" y2="291.64"/><line class="cls-11" x1="764.77" y1="269.04" x2="763.22" y2="274.22"/><line class="cls-11" x1="769.6" y1="251.44" x2="768.03" y2="257.37"/><polyline class="cls-11" points="314.6 236.13 141.03 236.13 67.34 236.13 121.03 454.03 699.98 454.03 753.67 236.13 584.42 236.13"/><line class="cls-11" x1="519.03" y1="236.13" x2="397.83" y2="236.13"/><rect class="cls-11" x="323.13" y="298.14" width="161.05" height="116.94"/><rect class="cls-12" x="397.83" y="106.86" width="108.75" height="66.96"/><rect class="cls-11" x="314.6" y="194.69" width="83.23" height="41.44"/><rect class="cls-11" x="519.03" y="196.76" width="65.39" height="39.37"/><rect class="cls-11" x="212.76" y="84.33" width="74.33" height="112.43"/><rect class="cls-11" x="649.42" y="84.33" width="74.32" height="112.43"/><path class="cls-13" d="M413.91,393.26c0,.09.08.16.12.22a3.73,3.73,0,0,0,2.81,1.06c1-.32,1.23-.22,1.64.79a5.25,5.25,0,0,1,0,3.28,10.09,10.09,0,0,0-.38,3.14,1.87,1.87,0,0,1-.83,1.69,8.33,8.33,0,0,1-1.93,1,1.85,1.85,0,0,1-1.44,0c-1-.39-2-.8-3-1.12a1.94,1.94,0,0,1-1.3-2.48,4.83,4.83,0,0,1,.28-.89A23,23,0,0,0,411,397,6.78,6.78,0,0,1,413.91,393.26Z" transform="translate(0.5 0.5)"/><path class="cls-13" d="M405.11,395.46a14.57,14.57,0,0,0,.06-2.47,2.15,2.15,0,0,1,.25-1,7.43,7.43,0,0,0,.66-2,5,5,0,0,1,1.65-2.84,3.43,3.43,0,0,1,2.63-1,1.35,1.35,0,0,1,1.2.84,3.16,3.16,0,0,0,1.29,1.37,5.4,5.4,0,0,1,1.75,2.07c.07.12.12.24-.05.31-.76.34-.65,1-.55,1.6a.47.47,0,0,1-.23.58,7.05,7.05,0,0,0-3.32,4.51c-.11.49-.32.64-.83.55a17.26,17.26,0,0,1-3.1-.65A1.92,1.92,0,0,1,405.11,395.46Z" transform="translate(0.5 0.5)"/><path class="cls-13" d="M419.32,380.41c1.9,1.49,3.58,3.07,4.23,5.45a10.26,10.26,0,0,1,.28,1.22,3.05,3.05,0,0,1-1.08,2.9,8.13,8.13,0,0,1-3.28,1.71c-.1,0-.27.11-.28,0-.06-.46-.63-.61-.62-1.13,0-.35-.28-.55-.61-.6-.83-.11-1.58-.74-2.48-.42-.15,0-.23-.09-.31-.18a5.46,5.46,0,0,1-1.34-3.62,1.79,1.79,0,0,1,1-1.65c.53-.28,1.09-.51,1.65-.74A4.74,4.74,0,0,0,419.32,380.41Z" transform="translate(0.5 0.5)"/><path class="cls-13" d="M371,362a24.5,24.5,0,0,0,5,6.56,24.24,24.24,0,0,1,5.77,9,13.4,13.4,0,0,0,1.85,3.35,9.64,9.64,0,0,1-3.48-2.52c-.22-.26-.4-.56-.61-.84s-.14-.45-.42-.29,0,.34,0,.51.13.4.22.66a9.74,9.74,0,0,1-3.6-2.73,26.38,26.38,0,0,1-4.53-10.76,16.66,16.66,0,0,1-.34-2.44A.79.79,0,0,1,371,362Z" transform="translate(0.5 0.5)"/><path class="cls-13" d="M418.74,393c.26-.9,1-1,1.72-1.27a7.78,7.78,0,0,0,2.81-1.75,3.47,3.47,0,0,0,.9-3.19c-.05-.34.06-.35.32-.34a2.89,2.89,0,0,1,2.7,3,4,4,0,0,0,.7,2.8,4.87,4.87,0,0,1,.42.82,1.36,1.36,0,0,1-.39,1.64,7.75,7.75,0,0,0-2.09,2.85c-.43,1-1.16,1-2.12.8-.24,0-.17-.21-.17-.34a2.84,2.84,0,0,0-1.55-2.64,2.27,2.27,0,0,1-.74-.64A4.6,4.6,0,0,0,418.74,393Z" transform="translate(0.5 0.5)"/><path class="cls-13" d="M439.27,330.64c-.35.94.15,1.42.83,1.82.45.26.87.55,1.3.82.13.09.25.19.37,0s0-.27-.18-.32c-.39-.15-.42-.4-.25-.74,0-.08.06-.17.1-.25.22-.55.24-1.2.85-1.54,1.14-.64,2.33-1.28,3.67-.71a2.06,2.06,0,0,0,2.19-.28c.33-.23.59-.2.74.16a4,4,0,0,1,.43,2.44c-.22,1.14-.9,1.69-2.32,1.85a4.4,4.4,0,0,0-2.7,1.06,1.57,1.57,0,0,1-1.54.32,5.86,5.86,0,0,0-2.76-.1c-.66.14-1-.09-1.18-.75a2.37,2.37,0,0,0-.85-1.49.38.38,0,0,1,0-.62A6.86,6.86,0,0,0,439.27,330.64Z" transform="translate(0.5 0.5)"/><path class="cls-13" d="M395,389.38a24.67,24.67,0,0,0-5.16-1.29,11,11,0,0,1-4-2,18.16,18.16,0,0,1-5.61-6.63,2.75,2.75,0,0,1-.14-.3.33.33,0,0,1,0-.1s.08,0,.09,0a18.14,18.14,0,0,0,6.32,3.52,22.94,22.94,0,0,1,5.47,2.73,5.78,5.78,0,0,1,2.39,2.9A8.22,8.22,0,0,0,395,389.38Z" transform="translate(0.5 0.5)"/><path class="cls-13" d="M439.89,380.51c-.77.39-1.52.79-2.29,1.14a14.28,14.28,0,0,1-5.5,1.54,1.31,1.31,0,0,1-.28,0c-.11,0-.32.09-.29-.18s.17-.18.32-.19a14.08,14.08,0,0,0,5.47-1.46,21.07,21.07,0,0,0,2.37-1.25,4.62,4.62,0,0,1-2.15-.38c1.67-1,3.11-2.27,5-2.69a.62.62,0,0,0,.42-.22,40.7,40.7,0,0,0,2.35-3.57c-.21-.14-.34,0-.47.07a8,8,0,0,1-2.54.67c-.15,0-.37.17-.42-.15s.2-.22.35-.23a10.6,10.6,0,0,0,3.34-1,.88.88,0,0,0,.43-.48c.33-.59.65-1.18,1-1.78.27.11.36.27.17.53a1.27,1.27,0,0,0-.16.94,10.91,10.91,0,0,1-1.22,6.58c-.08.14-.18.27-.31.48a7.46,7.46,0,0,1-.55-3.58c0-.13.17-.3-.05-.37s-.17.16-.25.24a4.75,4.75,0,0,0-1.06,2.74,46.32,46.32,0,0,0-.88,4.79c0,.15-.05.28-.2.28s-.16-.21-.16-.34a19.72,19.72,0,0,1,.62-3.66,6.71,6.71,0,0,0,.29-1.8c-.32.41-.57.71-.81,1a27,27,0,0,1-2.15,2.62,5.09,5.09,0,0,0-.79,1.6c-.74,1.6-1.78,3-2.59,4.57-.15.3-.31.6-.54,1a9.06,9.06,0,0,1,.36-3.39.21.21,0,0,0-.27,0,32.77,32.77,0,0,1-6.71,4.61c-.72.39-1.37.9-2.07,1.37-.2-.27-.06-.42.15-.57a30.55,30.55,0,0,1,3.4-2.11,24.12,24.12,0,0,0,4.71-3.38,39.81,39.81,0,0,0,3.76-3.7C439.77,380.79,439.92,380.72,439.89,380.51Z" transform="translate(0.5 0.5)"/><path class="cls-13" d="M418.47,402.52a28.19,28.19,0,0,1,.63-4.92,4,4,0,0,0-.57-3c-.19-.29-.3-.5,0-.78.09-.09.09-.27.15-.42a4.16,4.16,0,0,1,2.16,1.4,4.22,4.22,0,0,0,1.19,1,2.42,2.42,0,0,1,.25,4,7.29,7.29,0,0,0-1.91,2.08C420,402.47,418.5,402.8,418.47,402.52Z" transform="translate(0.5 0.5)"/><path class="cls-13" d="M416.39,381.31l-.72.41a4,4,0,0,0-2.22,4.56,6.43,6.43,0,0,0,1.4,3.29c.12.14.29.31.08.44s-.21-.16-.29-.26a5.46,5.46,0,0,0-1.87-1.89A1.68,1.68,0,0,1,412,387c-.46-1.1-1.37-1.44-2.69-1.11a4.92,4.92,0,0,0-1.39.66c-.32.2-.43.08-.53-.23a1.39,1.39,0,0,1,.66-1.87,6.79,6.79,0,0,1,1.76-.74,4.29,4.29,0,0,0,2.24-1.59,2.93,2.93,0,0,1,2.68-1.5A2.81,2.81,0,0,1,416.39,381.31Z" transform="translate(0.5 0.5)"/><path class="cls-13" d="M439.91,329.77a10.4,10.4,0,0,1-1.55-1.08.44.44,0,0,1-.1-.51,2.1,2.1,0,0,0,0-1.24.94.94,0,0,1,.95-1.26,2.53,2.53,0,0,0,.91-.16.86.86,0,0,0,.57-.86A1.49,1.49,0,0,1,442.2,323a3.35,3.35,0,0,1,1.32.3,3.24,3.24,0,0,0,1.76.26.7.7,0,0,1,.86.49,2.68,2.68,0,0,0,.75,1.13,2.36,2.36,0,0,0,1.88.34c.68-.09.86,0,1,.69a1.73,1.73,0,0,0,.69,1.31c.2.12.18.33.08.54a3.12,3.12,0,0,1-.67.86c-.31.3-.62.68-1,.06-.17-.27-.43-.11-.63,0s-.5.27-.82.45a8.2,8.2,0,0,0,.34-2.07,1.24,1.24,0,0,0-.62-1.2,6.7,6.7,0,0,1-1.39-1.16,1.77,1.77,0,0,0-1.38-.56,4.15,4.15,0,0,0-2,.5c-.44.25-.66.83-1.29.83-.16,0-.23.26-.33.42A7.1,7.1,0,0,0,439.91,329.77Z" transform="translate(0.5 0.5)"/><path class="cls-13" d="M452,365.44a19.25,19.25,0,0,1-4.31,4.33c-.2,0-.18-.11-.13-.24a23.5,23.5,0,0,0-.05-4.11,8.41,8.41,0,0,1,1.5-5.78,6.72,6.72,0,0,0,0,.92,3.09,3.09,0,0,0,.78,1.83.45.45,0,0,1,0,.73,4.83,4.83,0,0,1-.83.8c-.09.07-.24.1-.12.29s.24.11.36,0,.47-.4.77-.67a5.71,5.71,0,0,1-.62,1.77c-.06.11-.13.22-.2.33s-.2.28,0,.4.22-.1.28-.19a9.5,9.5,0,0,0,1-2.24,4.86,4.86,0,0,1,.15.66c0,.16.07.23.23.21s.13-.14.13-.24a4.14,4.14,0,0,0-.23-1.05,1.88,1.88,0,0,0,2.21-.9C453.28,362.34,452.65,364.6,452,365.44Z" transform="translate(0.5 0.5)"/><path class="cls-13" d="M449.84,362.39a.45.45,0,0,1,0,.73,4.83,4.83,0,0,1-.83.8c-.09.07-.24.1-.12.29s.24.11.36,0,.47-.4.77-.67a5.71,5.71,0,0,1-.62,1.77c-.06.11-.13.22-.2.33s-.2.28,0,.4.22-.1.28-.19a9.5,9.5,0,0,0,1-2.24,4.86,4.86,0,0,1,.15.66c0,.16.07.23.23.21s.13-.14.13-.24a4.14,4.14,0,0,0-.23-1.05Z" transform="translate(0.5 0.5)"/><path class="cls-13" d="M391.25,388.72a17.3,17.3,0,0,1,2.56.6,6.23,6.23,0,0,1,2.48,1.45,12,12,0,0,0,2.32,1.6,25.26,25.26,0,0,1-7.25-1.06,21.94,21.94,0,0,1-3.59-1.89,16.76,16.76,0,0,0-3.26-1.54C384.56,387.63,389.12,388.39,391.25,388.72Z" transform="translate(0.5 0.5)"/><path class="cls-13" d="M452.89,349.49a6.46,6.46,0,0,1-.76,3.26.32.32,0,0,1-.4.22,1.67,1.67,0,0,0-1.4.25c-.13.11-.17,0-.23-.11a5.41,5.41,0,0,1-1-4.16,3.58,3.58,0,0,1,.44-1.22,1.67,1.67,0,0,1,1.53-.91,1.72,1.72,0,0,1,1.45,1A3,3,0,0,1,452.89,349.49Z" transform="translate(0.5 0.5)"/><path class="cls-13" d="M452.37,353.14a9.94,9.94,0,0,1,1.1-1.68,5.64,5.64,0,0,1,1.67-1.32,1.79,1.79,0,0,1,2.09.09,2,2,0,0,1,.68,2.13,2.52,2.52,0,0,1-1.38,1.8q-.73.38-1.44.78a1.74,1.74,0,0,1-.95.18.23.23,0,0,1-.26-.21A2.68,2.68,0,0,0,452.37,353.14Z" transform="translate(0.5 0.5)"/><path class="cls-13" d="M453.57,355.65a2.78,2.78,0,0,1-2.55,2.79,2.48,2.48,0,0,1-2.19-2.64,2.64,2.64,0,0,1,2.51-2.5A2.27,2.27,0,0,1,453.57,355.65Z" transform="translate(0.5 0.5)"/><path class="cls-13" d="M445.19,329.16a2.39,2.39,0,0,0,.44-2.26,1.68,1.68,0,0,0-2.85-.65c-.34.37-.89.78-.57,1.36a1.66,1.66,0,0,0,1.58.69.85.85,0,0,0,.7-1.37c-.08-.12-.13-.29-.33-.17s-.11.21,0,.33.26.41.05.64a.67.67,0,0,1-.71.16c-.33-.08-.76-.11-.9-.44s.22-.63.43-.89a1.48,1.48,0,0,1,1.66-.35,1.62,1.62,0,0,1,.71,1.5,1.73,1.73,0,0,1-2.31,1.59c-.42-.11-.85-.21-1.26-.35a.76.76,0,0,1-.58-1.05,14.63,14.63,0,0,1,.94-2.32.59.59,0,0,1,.13-.18,2.81,2.81,0,0,1,3.24,0,5.57,5.57,0,0,0,1.29,1.08,1,1,0,0,1,.52,1.12,6.64,6.64,0,0,1-.29,1.66c-.12.32-.29.43-.62.27A3.49,3.49,0,0,0,445.19,329.16Z" transform="translate(0.5 0.5)"/><path class="cls-13" d="M446.37,359.78c-.25,0-.46,0-.65-.07a1.76,1.76,0,0,1-1.2-2.81,2.77,2.77,0,0,1,3.6-1.15c.18.09.35.18.37.42a3,3,0,0,0,.9,1.94c.14.14.14.23,0,.35A5.8,5.8,0,0,1,446.37,359.78Z" transform="translate(0.5 0.5)"/><path class="cls-13" d="M416.05,389.81l2,.57a.26.26,0,0,1,.18.25,1.32,1.32,0,0,0,.45.84.69.69,0,0,1-.06,1,.94.94,0,0,0-.39.9c.05.34-.17.48-.47.55l-1.16.29c-.07,0-.16.06-.21,0-.64-.28-1.27-.55-1.9-.84a.29.29,0,0,1-.06-.25,3.89,3.89,0,0,0-.08-1.36.58.58,0,0,1,.33-.68,1,1,0,0,0,.6-.79C415.31,389.92,415.68,389.87,416.05,389.81Z" transform="translate(0.5 0.5)"/><path class="cls-13" d="M448.46,355.48a7.33,7.33,0,0,0-1.32-.39,2.57,2.57,0,0,1-1.94-3,1.42,1.42,0,0,1,2.08-1,4.16,4.16,0,0,1,2.28,2c.11.25.17.39-.1.58A2.68,2.68,0,0,0,448.46,355.48Z" transform="translate(0.5 0.5)"/><path class="cls-13" d="M379.07,378.7a2.61,2.61,0,0,1,.95,1.1,16.76,16.76,0,0,0,1.75,2.77c-.26.15-.44,0-.61-.09a13.53,13.53,0,0,1-2.81-1.79c-1.82-1.47-3.5-3.11-5.45-4.43A22.91,22.91,0,0,1,379.07,378.7Z" transform="translate(0.5 0.5)"/><path class="cls-13" d="M453.06,359.9a4.53,4.53,0,0,1-.27,2,1.45,1.45,0,0,1-2.47.45,3.18,3.18,0,0,1-.62-3.55c.11-.24.21-.31.49-.19a2.22,2.22,0,0,0,2-.1c.24-.13.32-.12.45.12C452.85,359.11,453.17,359.54,453.06,359.9Z" transform="translate(0.5 0.5)"/><path class="cls-13" d="M404.78,394c-2.75-.67-5.5-1.34-7.8-3.13a8.15,8.15,0,0,1-2.9-4.7,3.26,3.26,0,0,1,0-.33,16.49,16.49,0,0,0,1.26,2,11.63,11.63,0,0,0,5.25,3.72,17.81,17.81,0,0,1,3.3,1.57A2.13,2.13,0,0,1,404.78,394Z" transform="translate(0.5 0.5)"/><path class="cls-13" d="M452.85,358.09a3.42,3.42,0,0,0,1.07-2c0-.13.05-.23.22-.26a2.37,2.37,0,0,1,2.75,2.67,1.53,1.53,0,0,1-2.35,1.16,4.26,4.26,0,0,1-1.19-1C453.18,358.49,453,358.29,452.85,358.09Z" transform="translate(0.5 0.5)"/><path class="cls-13" d="M406.9,387.57c-1.34,1.46-1.18,3.45-2.14,5a3.32,3.32,0,0,1-.33-3.36A2.9,2.9,0,0,1,406.9,387.57Z" transform="translate(0.5 0.5)"/><path class="cls-13" d="M433.94,321.15a5.42,5.42,0,0,0-2.06.58c-.2.11-.31,0-.44-.08a10.52,10.52,0,0,1-1.89-1.29,3,3,0,0,1,2.28-.53C432.77,319.86,433.24,320.57,433.94,321.15Z" transform="translate(0.5 0.5)"/><path class="cls-13" d="M418.79,380.57A3.74,3.74,0,0,1,417,382.7a9.91,9.91,0,0,1-1.29.57,7.72,7.72,0,0,0-1.78,1A3.89,3.89,0,0,1,416,382C416.89,381.47,417.86,381.09,418.79,380.57Z" transform="translate(0.5 0.5)"/><path class="cls-13" d="M426.9,318.54a5.05,5.05,0,0,1,2.74-.46c.13,0,.26.19.37.31a8.91,8.91,0,0,0,1.24.93C429.62,320.13,428.24,319.55,426.9,318.54Z" transform="translate(0.5 0.5)"/><path class="cls-13" d="M436.63,322.53a5.05,5.05,0,0,1-2.58-3.88,8.35,8.35,0,0,1,2,1.47s.1.07.1.11A11.46,11.46,0,0,0,436.63,322.53Z" transform="translate(0.5 0.5)"/><path class="cls-13" d="M437.6,323.65a5.36,5.36,0,0,0-2.88.82.33.33,0,0,1-.4,0c-.34-.24-.7-.46-1-.7-.16-.11-.26-.23,0-.35a5.4,5.4,0,0,1,4-.12.23.23,0,0,1,.12.1Z" transform="translate(0.5 0.5)"/><path class="cls-13" d="M435.85,322.59a5.53,5.53,0,0,0-2.72.49.3.3,0,0,1-.35,0l-1.13-.73a4.47,4.47,0,0,1,2.2-.76A2.23,2.23,0,0,1,435.85,322.59Z" transform="translate(0.5 0.5)"/><path class="cls-13" d="M437.93,323.38a4.2,4.2,0,0,1-1.35-3.34c0-.35.15-.36.39-.18l.52.4c.43.36.77.74.56,1.39A6.86,6.86,0,0,0,437.93,323.38Z" transform="translate(0.5 0.5)"/><path class="cls-13" d="M428.37,317.7c-.65,0-1.19.52-1.84.33a6,6,0,0,1-2.1-1C425.34,316.51,426.71,316.4,428.37,317.7Z" transform="translate(0.5 0.5)"/><path class="cls-13" d="M442.89,329.71a2.45,2.45,0,0,0-1.81,2.05c-.26-1-.93-1.85-.73-3A16.39,16.39,0,0,0,442.89,329.71Z" transform="translate(0.5 0.5)"/><path class="cls-13" d="M419.24,312.33a4.48,4.48,0,0,1,2.41.66,4.22,4.22,0,0,1,.46.38.54.54,0,0,1,.2.58c-.07.17-.33.05-.5.05a2.45,2.45,0,0,1-2.51-1.45A1.16,1.16,0,0,1,419.24,312.33Z" transform="translate(0.5 0.5)"/><path class="cls-13" d="M434.22,320.79a7.13,7.13,0,0,1-2.52-3A3.34,3.34,0,0,1,434.22,320.79Z" transform="translate(0.5 0.5)"/><path class="cls-13" d="M429.29,382.81a1,1,0,0,1,1-.8.82.82,0,0,1,.82.89,1,1,0,0,1-1,.85A.93.93,0,0,1,429.29,382.81Z" transform="translate(0.5 0.5)"/><path class="cls-13" d="M429.14,316.52a4.87,4.87,0,0,1,2.89,2.69A5.14,5.14,0,0,1,429.14,316.52Z" transform="translate(0.5 0.5)"/><path class="cls-13" d="M442.82,385a.82.82,0,0,1-.79-.81c0-.34.45-.91.68-.9a1.12,1.12,0,0,1,1,.89A.85.85,0,0,1,442.82,385Z" transform="translate(0.5 0.5)"/><path class="cls-13" d="M438,324a2.67,2.67,0,0,1-2.88,1c-.08,0-.24,0-.23-.17s.13-.16.22-.21A5.19,5.19,0,0,1,438,324Z" transform="translate(0.5 0.5)"/><path class="cls-13" d="M425.5,316.22a2.17,2.17,0,0,1-2.53-.31c-.09-.07-.21-.1-.19-.24s.16-.11.26-.12l1.52-.19c.1,0,.16,0,.23.06Z" transform="translate(0.5 0.5)"/><path class="cls-13" d="M429,317.46a4.29,4.29,0,0,1-2.57-2.58A7.29,7.29,0,0,1,429,317.46Z" transform="translate(0.5 0.5)"/><path class="cls-13" d="M438.61,320.76c.94,1,1.15,1.84-.2,2.87A7.16,7.16,0,0,1,438.61,320.76Z" transform="translate(0.5 0.5)"/><path class="cls-13" d="M440.3,324.7c0,.26-.16.36-.34.47a.33.33,0,0,1-.48-.09,3.29,3.29,0,0,0-.77-.61c-.1-.07-.35-.08-.27-.25s.26-.47.46-.4a4.34,4.34,0,0,1,1.32.63C440.28,324.5,440.27,324.62,440.3,324.7Z" transform="translate(0.5 0.5)"/><path class="cls-13" d="M424.73,314.69a2.26,2.26,0,0,1,2.07,1.74C425.8,316.23,425.32,315.46,424.73,314.69Z" transform="translate(0.5 0.5)"/><path class="cls-13" d="M432.5,389.72c0,.22-.1.55-.17.89,0,.13-.05.28-.21.27s-.17-.16-.21-.28a11.39,11.39,0,0,1-.2-1.94c0-.12.09-.21.2-.11A1.34,1.34,0,0,1,432.5,389.72Z" transform="translate(0.5 0.5)"/><path class="cls-13" d="M441.5,373.88c-.05.36-.18.62-.58.61a.56.56,0,0,1-.63-.59c0-.37.16-.69.54-.68A.68.68,0,0,1,441.5,373.88Z" transform="translate(0.5 0.5)"/><path class="cls-13" d="M420.94,314.29c.88.14,1.74-.09,2.24.76C422.35,315.38,422,315.25,420.94,314.29Z" transform="translate(0.5 0.5)"/><path class="cls-13" d="M440,330.82c.37,0,.42.25.48.52s.38.7.11.88-.52-.28-.79-.45-.23-.55-.12-.86S439.88,330.76,440,330.82Z" transform="translate(0.5 0.5)"/><path class="cls-13" d="M424.44,315c-.74.18-1.46-.38-1.77-1.39C423.36,314,424.11,314.17,424.44,315Z" transform="translate(0.5 0.5)"/><path class="cls-13" d="M440.8,328.51c-.36-.1-.47-.3-.4-.56a3.2,3.2,0,0,1,1-1.9C441.27,326.88,440.68,327.59,440.8,328.51Z" transform="translate(0.5 0.5)"/><path class="cls-13" d="M439.6,374.12c-.22-.17-.61-.12-.64-.49,0-.11.16-.18.26-.12.27.17.75.09.72.65a.79.79,0,0,1-.34.63s-.16,0-.19-.05C439.25,374.49,439.55,374.37,439.6,374.12Z" transform="translate(0.5 0.5)"/><path class="cls-13" d="M443,385.38c.3-.08.37.21.53.36a.16.16,0,0,1,0,.27c-.09.07-.19.11-.28,0s-.22-.42-.36,0c0,.1-.31.07-.32,0s-.06-.45.19-.56A.64.64,0,0,1,443,385.38Z" transform="translate(0.5 0.5)"/><path class="cls-13" d="M430.87,387.62a2.26,2.26,0,0,1-1.47-.79A2.38,2.38,0,0,1,430.87,387.62Z" transform="translate(0.5 0.5)"/><path class="cls-13" d="M428.84,382.63c-.16-.24-.33-.48-.48-.72,0-.07-.12-.18,0-.24s.29-.05.3,0c.13.31.63.53.27,1Z" transform="translate(0.5 0.5)"/><path class="cls-13" d="M428.84,382.63h.06a.52.52,0,0,1-.22.65c-.12.07-.21.12-.32,0s-.06-.21.05-.3Z" transform="translate(0.5 0.5)"/><path class="cls-13" d="M451.31,340c-.85-2.18-2.85-3.31-4.48-4.93a9.65,9.65,0,0,1-.06,2.7,34.71,34.71,0,0,0-.44,3.81,10.82,10.82,0,0,0,.24,2.78,5.55,5.55,0,0,0,2.53,3.05c.19.14.24,0,.33-.13a2.08,2.08,0,0,1,2.58-.64A14.9,14.9,0,0,0,451.31,340Zm-.64,6.24a.28.28,0,0,1-.18.17c-.18,0-.23-.14-.3-.26a20.59,20.59,0,0,0-1.48-2.31,4.29,4.29,0,0,0-.36-.48c-.11-.13-.15-.25,0-.37s.22.05.28.14c.4.55.78,1.1,1.17,1.66.14.06.15,0,.13-.13A20.48,20.48,0,0,0,448.9,341c-.06-.15-.26-.36,0-.47s.3.2.36.36a19.26,19.26,0,0,1,1.12,3.94c0,.16,0,.33.17.46a8.77,8.77,0,0,0,.29-2.65c0-.16-.17-.45.18-.47s.2.26.21.41A10.42,10.42,0,0,1,450.67,346.25Z" transform="translate(0.5 0.5)"/><path class="cls-13" d="M450.67,346.25a.28.28,0,0,1-.18.17c-.18,0-.23-.14-.3-.26a20.59,20.59,0,0,0-1.48-2.31,4.29,4.29,0,0,0-.36-.48c-.11-.13-.15-.25,0-.37s.22.05.28.14c.4.55.78,1.1,1.17,1.66.14.06.15,0,.13-.13A20.48,20.48,0,0,0,448.9,341c-.06-.15-.26-.36,0-.47s.3.2.36.36a19.26,19.26,0,0,1,1.12,3.94c0,.16,0,.33.17.46a8.77,8.77,0,0,0,.29-2.65c0-.16-.17-.45.18-.47s.2.26.21.41A10.42,10.42,0,0,1,450.67,346.25Z" transform="translate(0.5 0.5)"/><path class="cls-13" d="M379.93,359.37c.15,1.25.3,2.5.43,3.75.06.6.12,1.2.17,1.8,0,.3.06.6.08.9,0,.06.11,1.09.26.93a.16.16,0,0,0-.22-.22l0,0a.17.17,0,0,0,0,.22l.05.05a.17.17,0,0,0,.22,0c.19-.24.07-.58.05-.86l-.21-2.25c-.15-1.45-.31-2.9-.49-4.35,0-.2-.34-.2-.31,0Z" transform="translate(0.5 0.5)"/><path class="cls-13" d="M378.05,362a12.67,12.67,0,0,1,2.95-3.41l.37-.29.71.19c.1.11.07.48.07.62a6.34,6.34,0,0,1-.11,1.3,7.31,7.31,0,0,1-.92,2.47.16.16,0,0,0,.27.16,3.22,3.22,0,0,1,3.55-1.46c1.46.5,1.52,2.52,1,3.71a3.42,3.42,0,0,1-5.89.6c-.11-.16-.38,0-.26.16a3.73,3.73,0,0,0,6.61-1.14c.35-1.25.08-3.07-1.29-3.59a3.5,3.5,0,0,0-4,1.56l.27.16a7.88,7.88,0,0,0,1-3.12c.06-.53.23-1.77-.45-2.05s-1.74.95-2.14,1.34a13,13,0,0,0-2.05,2.63.16.16,0,0,0,.27.16Z" transform="translate(0.5 0.5)"/><path class="cls-13" d="M387.71,364.41a9.47,9.47,0,0,0,2-.35.16.16,0,0,0-.09-.3,9.15,9.15,0,0,1-1.88.34c-.2,0-.2.33,0,.31Z" transform="translate(0.5 0.5)"/><path class="cls-13" d="M389.86,363.94c.09-.66-.2-1.41-1-1.39s-1.22.95-1.31,1.68a2.41,2.41,0,0,0,.77,2.36,1.26,1.26,0,0,0,1.79-.34c.11-.16-.16-.32-.27-.15a1,1,0,0,1-1.72-.15,2.34,2.34,0,0,1-.29-1.4,2.55,2.55,0,0,1,.3-1.21c.59-.87,1.5-.22,1.39.6,0,.19.29.19.31,0Z" transform="translate(0.5 0.5)"/><path class="cls-13" d="M394,363.21a1.5,1.5,0,0,0-1.93,0,3.12,3.12,0,0,0-.94,2.58,1.6,1.6,0,0,0,1.44,1.46,1.89,1.89,0,0,0,1.87-1.23c.08-.18-.19-.34-.27-.16a1.67,1.67,0,0,1-1.36,1.09,1.31,1.31,0,0,1-1.37-1.39c0-1,1-3.33,2.34-2.09.15.13.37-.09.22-.22Z" transform="translate(0.5 0.5)"/><path class="cls-13" d="M393.63,358.82c.11,1.53.24,3.06.38,4.59a12.69,12.69,0,0,0,.52,3.8c.08.19.34,0,.26-.15a7.86,7.86,0,0,1-.34-2.28l-.18-2c-.12-1.33-.24-2.65-.33-4,0-.19-.32-.2-.31,0Z" transform="translate(0.5 0.5)"/><path class="cls-13" d="M404.25,366.82a6.45,6.45,0,0,1-4.29-4.39,4.37,4.37,0,0,1,.44-3.21,1.94,1.94,0,0,1,.94-.85,1.05,1.05,0,0,1,1.24.81,2.53,2.53,0,0,1-.72,2.07,14,14,0,0,0-1.62,2.42c-.31.65-.83,1.48-.6,2.23.51,1.63,2.52.87,3.47.23.16-.11,0-.38-.16-.26a3.18,3.18,0,0,1-1.85.72c-1.48-.08-1.2-1.46-.76-2.39a11.16,11.16,0,0,1,.9-1.67c.36-.54.83-1,1.19-1.54a2.19,2.19,0,0,0,.27-2.31,1.25,1.25,0,0,0-1.68-.5c-1.73.88-1.72,3.6-1.12,5.13a7.11,7.11,0,0,0,4.26,3.81c.19.07.27-.23.09-.3Z" transform="translate(0.5 0.5)"/><path class="cls-13" d="M409.37,359.21c.15,1.25.3,2.5.43,3.75.06.6.12,1.2.17,1.81,0,.3.06.6.08.9,0,.05.11,1.09.26.93s-.08-.37-.22-.22l0,0a.17.17,0,0,0,0,.22l.05,0a.15.15,0,0,0,.22,0c.19-.23.07-.57.05-.85l-.21-2.26c-.15-1.45-.31-2.9-.49-4.35,0-.19-.34-.19-.31,0Z" transform="translate(0.5 0.5)"/><path class="cls-13" d="M407.49,361.87a12.38,12.38,0,0,1,2.95-3.41l.37-.29.72.19c.09.1.06.47.06.61a6.23,6.23,0,0,1-.11,1.3,7.36,7.36,0,0,1-.92,2.48c-.1.17.16.32.27.15a3.22,3.22,0,0,1,3.55-1.46c1.46.51,1.52,2.53,1,3.71a3.41,3.41,0,0,1-5.88.61c-.12-.16-.39,0-.27.15a3.72,3.72,0,0,0,6.61-1.14c.35-1.25.08-3.06-1.29-3.59a3.52,3.52,0,0,0-4,1.57l.27.15a7.68,7.68,0,0,0,1-3.12c.06-.53.23-1.77-.45-2s-1.74,1-2.14,1.35a13.1,13.1,0,0,0-2,2.63.16.16,0,0,0,.27.16Z" transform="translate(0.5 0.5)"/><path class="cls-13" d="M419.05,364.69a10.19,10.19,0,0,0,2-.36.16.16,0,0,0-.09-.3,9.17,9.17,0,0,1-1.88.35c-.2,0-.2.32,0,.31Z" transform="translate(0.5 0.5)"/><path class="cls-13" d="M421.2,364.21c.08-.65-.2-1.4-1-1.38s-1.22.95-1.31,1.67a2.43,2.43,0,0,0,.77,2.37,1.26,1.26,0,0,0,1.79-.35c.11-.16-.16-.32-.27-.15a1,1,0,0,1-1.72-.15,2.34,2.34,0,0,1-.29-1.4,2.55,2.55,0,0,1,.3-1.21c.59-.87,1.5-.22,1.39.6,0,.2.29.19.31,0Z" transform="translate(0.5 0.5)"/><path class="cls-13" d="M416.37,362.26a15.79,15.79,0,0,1,.64,4.68.16.16,0,0,0,.31,0,16.33,16.33,0,0,0-.65-4.76.16.16,0,0,0-.3.08Z" transform="translate(0.5 0.5)"/><path class="cls-13" d="M417.07,363.89a2.11,2.11,0,0,1,2-1.23c.19,0,.2-.34,0-.31a2.42,2.42,0,0,0-2.26,1.46c-.06.19.24.27.3.08Z" transform="translate(0.5 0.5)"/><path class="cls-13" d="M425,357.71a81.92,81.92,0,0,1,1,9.25c0,.2.32.2.31,0a83.77,83.77,0,0,0-1-9.34c0-.19-.33-.11-.3.09Z" transform="translate(0.5 0.5)"/><path class="cls-13" d="M427.08,361.91a17.25,17.25,0,0,1-1.06,3.21c-.08.18.17.34.27.16.42-.82,1.82-1.19,2.19-.13a7.22,7.22,0,0,1,.13,2,.16.16,0,0,0,.31,0c0-.79.24-2.44-.7-2.86a1.87,1.87,0,0,0-2.2.86l.27.16a17.88,17.88,0,0,0,1.09-3.29.16.16,0,0,0-.3-.08Z" transform="translate(0.5 0.5)"/><path class="cls-13" d="M422.29,363.33a1.13,1.13,0,0,1,1.47-.25,1.74,1.74,0,0,1,.63,1.35,10.48,10.48,0,0,1,0,2.24h.31c0-.77-.07-1.75-.88-2.11a1.58,1.58,0,0,0-1.95.68c-.63,1.41,1.46,2.67,2.51,1.66a.16.16,0,0,0-.22-.22c-.93.89-2.79-.53-1.8-1.55a1.15,1.15,0,0,1,1.76.1,2.46,2.46,0,0,1,.27,1.44.16.16,0,0,0,.31,0c.06-1.07.27-2.78-.56-3.64a1.44,1.44,0,0,0-2.11.08.16.16,0,0,0,.22.22Z" transform="translate(0.5 0.5)"/><path class="cls-13" d="M432,357.24c-1.73,0-1.79,2-1.76,3.24q.06,3.33.41,6.65l.29-.08-.13-.28c-.08-.18-.34,0-.26.16l.12.28c.06.14.3.07.29-.08-.17-1.62-.29-3.25-.36-4.87-.05-1.26-.63-4.75,1.4-4.71.2,0,.2-.3,0-.31Z" transform="translate(0.5 0.5)"/><path class="cls-13" d="M429.66,365.16a11.51,11.51,0,0,0,1.85.13c.2,0,.2-.32,0-.31a11.7,11.7,0,0,1-1.77-.12c-.19,0-.28.27-.08.3Z" transform="translate(0.5 0.5)"/><path class="cls-13" d="M432.77,363.53a1.14,1.14,0,0,1,1.47-.25,1.78,1.78,0,0,1,.64,1.35,10.48,10.48,0,0,1,0,2.24h.31c0-.77-.08-1.74-.89-2.1a1.56,1.56,0,0,0-1.94.67c-.64,1.41,1.46,2.67,2.5,1.66a.16.16,0,0,0-.22-.22c-.92.9-2.79-.52-1.79-1.55a1.14,1.14,0,0,1,1.76.11,2.57,2.57,0,0,1,.27,1.43.16.16,0,0,0,.31,0c0-1.07.26-2.78-.57-3.63a1.44,1.44,0,0,0-2.11.07.16.16,0,0,0,.22.22Z" transform="translate(0.5 0.5)"/><path class="cls-13" d="M439.26,363.13c-.45-.41-1.18-1.06-1.84-.84a1.16,1.16,0,0,0-.65,1.41c.21.78,1,.92,1.57,1.27s1.23,1.34.5,2c-.89.81-1.72-.13-2-.94a.15.15,0,0,0-.29.08c.19.68.52,1.29,1.27,1.42a1.37,1.37,0,0,0,1.54-.87,1.49,1.49,0,0,0-.5-1.69c-.46-.38-1.13-.45-1.54-.87s-.37-1.72.73-1.43a2.77,2.77,0,0,1,1,.68c.15.13.37-.08.22-.22Z" transform="translate(0.5 0.5)"/><path class="cls-13" d="M440.06,357.86q.45,4.63.72,9.3c0,.2.32.2.31,0q-.27-4.67-.72-9.3c0-.2-.33-.2-.31,0Z" transform="translate(0.5 0.5)"/><path class="cls-13" d="M439.83,364.64l1.92-.09c.19,0,.2-.32,0-.31l-1.92.09c-.2,0-.2.32,0,.31Z" transform="translate(0.5 0.5)"/><path class="cls-13" d="M353.49,350.8l-5.14-17.17a.17.17,0,0,1,.16-.21h3.17a.17.17,0,0,1,.16.12l3.5,12.47a.16.16,0,0,0,.31,0l3.5-12.47a.16.16,0,0,1,.16-.12h3.19a.17.17,0,0,1,.16.21L357.5,350.8a.18.18,0,0,1-.16.12h-3.69A.17.17,0,0,1,353.49,350.8Z" transform="translate(0.5 0.5)"/><path class="cls-13" d="M365.36,350.75V338.5a.17.17,0,0,1,.17-.17H368a.17.17,0,0,1,.17.17v1.29l.46-.53,0,0,.55-.41,0,0,.58-.27h0l.63-.17h0l.71-.06h.59l.45,0a.16.16,0,0,1,.15.16v2.7a.17.17,0,0,1-.18.17l-.42,0h0l-.71,0h0l-.69.1-.05,0-.54.23,0,0-.5.43,0,0-.41.54,0,0-.25.69a0,0,0,0,1,0,0l-.11.7v6.55a.17.17,0,0,1-.16.17h-2.67A.18.18,0,0,1,365.36,350.75Z" transform="translate(0.5 0.5)"/><path class="cls-13" d="M374,350.13l1-1.2a.17.17,0,0,0,0-.19l-.45-.77v0l-.38-1.09a0,0,0,0,1,0,0l-.19-1.15h0l-.07-.88v0l0-1h0l.17-1.14v0l.37-1.14a0,0,0,0,1,0,0l.64-1.09,0,0,.77-.9,0,0,.91-.64h0l1.08-.5h0l1-.22h0l1-.06h0l1.15.08h0l1,.27h0l.85.39h0l.37.23a.17.17,0,0,0,.21,0l.87-1a.17.17,0,0,1,.23,0l1.19,1a.15.15,0,0,1,0,.23l-1,1.1a.17.17,0,0,0,0,.19l.31.54v0l.36.85v0l.23.78v0l.15.92v0l0,.87h0l0,1v0l-.15,1v0l-.27,1a0,0,0,0,1,0,0l-.45.87v0l-.56.84,0,0-.77.74h0l-.85.54h0l-.93.39h0l-1.08.23h0l-.85.05h0l-.85-.05h0l-1-.21h0l-1-.33,0,0-.64-.38a.17.17,0,0,0-.21,0l-.93,1a.17.17,0,0,1-.23,0l-1.18-1A.16.16,0,0,1,374,350.13Zm3.39-4,4.34-4.8a.16.16,0,0,0-.06-.26l-.72-.29h0l-.9-.12H380l-.82.12-.05,0-.83.42a.1.1,0,0,0-.05,0l-.64.74,0,0-.42,1s0,0,0,0l-.18,1.12a0,0,0,0,0,0,0l0,1.14v0l.16.67A.16.16,0,0,0,377.43,346.14Zm1.19,2,.51.27h.05l1,.15h.05l1.11-.21.06,0,.82-.54,0,0,.63-.91s0,0,0-.05l.31-1v0l.12-1v0l-.05-1a0,0,0,0,0,0,0l-.14-.63a.17.17,0,0,0-.29-.07l-4.24,4.86A.16.16,0,0,0,378.62,348.17Z" transform="translate(0.5 0.5)"/><path class="cls-13" d="M390.55,351.44l.75.35h0l1,.3h0l.84.16h0l1,.08h0l.84-.08h0l.69-.2.05,0,.59-.41,0,0,.3-.39a.09.09,0,0,0,0-.06l.14-.52v0l.06-.7h0v-.62l-.44.32,0,0-.7.31h0l-.7.2h0l-.85.07h0l-1-.07h0l-1.12-.37h0l-1-.61,0,0-.78-.81,0,0-.62-1v0l-.43-1.14v0l-.16-.85v0l-.05-1.15v0l.1-1.29v0l.3-1.28a0,0,0,0,1,0,0l.56-1.14s0,0,0,0l.78-.92,0,0,1-.69,0,0,1.27-.47h0l1.27-.14h0l1.13.19h0l.94.33,0,0,.63.5a.17.17,0,0,0,.27-.13v-.41a.16.16,0,0,1,.17-.17h2.29a.17.17,0,0,1,.17.17v12l-.08.83v0l-.25,1v0l-.52,1,0,0-.7.66,0,0-.84.44h0l-1,.39h0l-1.14.19h0l-1.15.06h0l-1.15-.07h0l-1.14-.19h0l-1.29-.37h0l-1.16-.43a.17.17,0,0,1-.1-.22l1-2.34A.15.15,0,0,1,390.55,351.44ZM397,343l-.13-.69a.14.14,0,0,0,0-.06l-.3-.5,0,0-.4-.38,0,0-.63-.33,0,0-.74-.15h-.06L394,341l-.05,0-.68.32a.1.1,0,0,0-.05,0l-.47.46,0,0-.38.61s0,0,0,.05l-.16.7v0l-.09,1v0l.08.78v0l.2.76,0,0,.32.54,0,0,.49.49,0,0,.69.35H394l.61.06h0l.76-.1h.05l.68-.34.06,0,.46-.59,0,0,.33-.68a.64.64,0,0,0,0-.07l0-.83h0v-1.57A0,0,0,0,0,397,343Z" transform="translate(0.5 0.5)"/><path class="cls-13" d="M411.3,350.08l-.38.33h0l-.7.43,0,0-.71.17h0l-.72.14h0l-.55,0h0l-.71-.05h0l-.7-.18h0l-.84-.32,0,0-.7-.49,0,0-.59-.66,0,0-.37-.7v0l-.23-.69s0,0,0,0l-.06-.87V338.5a.16.16,0,0,1,.17-.17h2.67a.16.16,0,0,1,.17.17v8.05l.1.71v0l.2.45.05.05.38.34s0,0,.05,0l.55.2h0l.54.05h0l.55-.05h.05l.54-.23h0l.56-.33.05,0,.4-.51a.08.08,0,0,0,0-.05l.21-.64a0,0,0,0,0,0,0l.08-.72V338.5a.17.17,0,0,1,.17-.17h2.73a.16.16,0,0,1,.16.17v12.25a.17.17,0,0,1-.16.17h-2.38a.18.18,0,0,1-.17-.17v-.54A.16.16,0,0,0,411.3,350.08Z" transform="translate(0.5 0.5)"/><path class="cls-13" d="M417.84,350.75V338.49a.16.16,0,0,1,.16-.16h2.45a.16.16,0,0,1,.16.16v.83l.57-.51,0,0,.7-.44h0l.84-.25h0l.76-.07h0l.87.07h0l.76.21,0,0,.65.4h0l.47.41,0,0,.27.3a.16.16,0,0,0,.24,0l.4-.41h0l.57-.4,0,0,.61-.31,0,0,.71-.18h0l.84-.11h0l.79.07h0l.76.22h0l.7.29,0,0,.63.48,0,0,.49.54,0,0,.41.69v0l.23.73a0,0,0,0,1,0,0l.07.71v8.88a.17.17,0,0,1-.16.17h-2.68a.17.17,0,0,1-.16-.17v-8.27s0,0,0-.05l-.23-.66a.09.09,0,0,0,0,0l-.41-.46-.06,0-.49-.18h0l-.46,0h0l-.47.06h0l-.39.16,0,0-.4.31,0,0L428,342l0,.05-.17.55v0l0,.55h0v7.56a.18.18,0,0,1-.17.17h-2.77a.18.18,0,0,1-.17-.17V342.9l-.1-.84a.09.09,0,0,0,0-.07l-.39-.59a.12.12,0,0,0-.05,0l-.47-.27-.05,0L423,341H423l-.61.1-.05,0-.53.28,0,0-.41.37,0,0-.32.55a.14.14,0,0,0,0,.06l-.08.63v7.71a.17.17,0,0,1-.16.17H418A.17.17,0,0,1,417.84,350.75Z" transform="translate(0.5 0.5)"/><path class="cls-11" d="M120.53,453.53" transform="translate(0.5 0.5)"/><path class="cls-11" d="M98.84,431.31" transform="translate(0.5 0.5)"/><path class="cls-14" d="M94.26,414s16.25,1.7,21.69,22.21c0,0-22-.82-21.69-22.21" transform="translate(0.5 0.5)"/><path class="cls-15" d="M89.73,396.29S106,398,111.42,418.5c0,0-22-.82-21.69-22.21" transform="translate(0.5 0.5)"/><path class="cls-14" d="M85,378.46a26.38,26.38,0,0,0,.36,4.94,21.36,21.36,0,0,0,.88,3.44c3.31,8.38,11.79,13.33,20.45,13.84C104,390.37,96.23,380,85,378.46" transform="translate(0.5 0.5)"/><path class="cls-15" d="M80.15,361s17.4,1.71,22.83,22.22c0,0-23.13-.82-22.83-22.22" transform="translate(0.5 0.5)"/><path class="cls-14" d="M75.76,343.58s17.4,1.71,22.84,22.21c0,0-23.14-.82-22.84-22.21" transform="translate(0.5 0.5)"/><path class="cls-15" d="M71,325.62s17.39,1.71,22.83,22.21c0,0-23.14-.81-22.83-22.21" transform="translate(0.5 0.5)"/><path class="cls-14" d="M66.17,308.36s18.4,1.4,23.84,21.9c0,0-24.15-.5-23.84-21.9" transform="translate(0.5 0.5)"/><path class="cls-15" d="M61.83,291.14s18.4,1.4,23.84,21.9c0,0-24.14-.51-23.84-21.9" transform="translate(0.5 0.5)"/><path class="cls-14" d="M57.3,273.72s18.4,1.4,23.84,21.91c0,0-24.15-.51-23.84-21.91" transform="translate(0.5 0.5)"/><path class="cls-15" d="M52.48,256.87s19,1,24.41,21.52c0,0-24.71-.13-24.41-21.52" transform="translate(0.5 0.5)"/><path class="cls-14" d="M47.8,239.36s19,1,24.41,21.51c0,0-24.72-.12-24.41-21.51" transform="translate(0.5 0.5)"/><path class="cls-15" d="M68.72,243.26s-15.74-.1-21.88-7.63h20Z" transform="translate(0.5 0.5)"/><path class="cls-15" d="M98.84,431.31s16.25,1.71,21.69,22.22c0,0-22-.82-21.69-22.22" transform="translate(0.5 0.5)"/><path class="cls-15" d="M721.18,431.31s-16.26,1.71-21.7,22.22c0,0,22-.82,21.7-22.22" transform="translate(0.5 0.5)"/><path class="cls-14" d="M725.75,414s-16.25,1.7-21.69,22.21c0,0,22-.82,21.69-22.21" transform="translate(0.5 0.5)"/><path class="cls-15" d="M730.28,396.29S714,398,708.59,418.5c0,0,22-.82,21.69-22.21" transform="translate(0.5 0.5)"/><path class="cls-14" d="M735,378.46a26.38,26.38,0,0,1-.36,4.94,21.36,21.36,0,0,1-.88,3.44c-3.31,8.38-11.79,13.33-20.45,13.84,2.73-10.31,10.45-20.66,21.69-22.22" transform="translate(0.5 0.5)"/><path class="cls-15" d="M739.86,361s-17.4,1.71-22.83,22.22c0,0,23.14-.82,22.83-22.22" transform="translate(0.5 0.5)"/><path class="cls-14" d="M744.25,343.58s-17.4,1.71-22.84,22.21c0,0,23.14-.82,22.84-22.21" transform="translate(0.5 0.5)"/><path class="cls-15" d="M749,325.62s-17.39,1.71-22.83,22.21c0,0,23.14-.81,22.83-22.21" transform="translate(0.5 0.5)"/><path class="cls-14" d="M753.84,308.36s-18.4,1.4-23.84,21.9c0,0,24.15-.5,23.84-21.9" transform="translate(0.5 0.5)"/><path class="cls-15" d="M758.18,291.14s-18.4,1.4-23.84,21.9c0,0,24.14-.51,23.84-21.9" transform="translate(0.5 0.5)"/><path class="cls-14" d="M762.72,273.72s-18.41,1.4-23.85,21.91c0,0,24.15-.51,23.85-21.91" transform="translate(0.5 0.5)"/><path class="cls-15" d="M767.53,256.87s-19,1-24.41,21.52c0,0,24.71-.13,24.41-21.52" transform="translate(0.5 0.5)"/><path class="cls-14" d="M772.21,239.36s-19,1-24.41,21.51c0,0,24.72-.12,24.41-21.51" transform="translate(0.5 0.5)"/><path class="cls-15" d="M751.29,243.26s15.74-.1,21.88-7.63h-20Z" transform="translate(0.5 0.5)"/><rect class="cls-16" x="397.83" y="106.86" width="16.48" height="66.96"/><rect class="cls-16" x="489.7" y="106.86" width="16.48" height="66.96"/><polygon class="cls-17" points="72.7 254.51 749.54 254.51 753.67 236.13 67.34 236.13 72.7 254.51"/><polygon class="cls-11" points="72.7 254.51 77.39 278.88 743.62 278.88 749.54 254.51 72.7 254.51"/><polygon class="cls-17" points="77.39 278.88 84.13 304.26 323.13 304.26 323.13 298.14 484.18 298.14 484.18 304.26 736.83 304.26 743.62 278.88 77.39 278.88"/><polygon class="cls-11" points="84.13 304.26 90.51 330.76 323.13 330.76 323.13 304.26 84.13 304.26"/><polygon class="cls-11" points="484.18 304.26 484.18 330.76 730.5 330.76 736.83 304.26 484.18 304.26"/><polygon class="cls-17" points="323.13 330.76 323.13 353.71 96.33 353.71 90.51 330.76 323.13 330.76"/><polygon class="cls-17" points="484.18 330.76 484.18 353.71 724.68 353.71 730.5 330.76 484.18 330.76"/><polygon class="cls-11" points="323.13 353.71 323.13 374.64 101.63 374.64 96.33 353.71 323.13 353.71"/><polygon class="cls-11" points="484.18 353.71 484.18 374.64 719.46 374.99 724.68 353.71 484.18 353.71"/><polygon class="cls-17" points="323.13 374.64 323.13 394.78 106.43 394.78 101.63 374.64 323.13 374.64"/><polygon class="cls-17" points="484.18 374.64 484.18 394.49 714.1 395.74 719.46 374.99 484.18 374.64"/><polygon class="cls-11" points="323.13 394.78 323.13 415.08 111.43 415.08 106.43 394.78 323.13 394.78"/><polygon class="cls-11" points="484.18 394.49 484.18 415.08 709.64 414.83 714.1 395.74 484.18 394.49"/><polygon class="cls-17" points="111.43 415.08 116.45 436.7 704.56 436.7 709.64 414.83 111.43 415.08"/><path class="cls-11" d="M249.43,83.83v0Z" transform="translate(0.5 0.5)"/><path class="cls-11" d="M212.26,115.38h0Z" transform="translate(0.5 0.5)"/><path class="cls-11" d="M212.26,159.67h0Z" transform="translate(0.5 0.5)"/><path class="cls-18" d="M686.08,83.83v0Z" transform="translate(0.5 0.5)"/><path class="cls-18" d="M648.92,115.38h0Z" transform="translate(0.5 0.5)"/><path class="cls-18" d="M648.92,159.67h0Z" transform="translate(0.5 0.5)"/><polygon class="cls-19" points="414.77 134.86 489.29 143.31 489.29 172.34 414.77 172.34 414.77 134.86"/><polygon class="cls-20" points="414.77 108.06 414.77 124.07 489.29 133.86 489.29 108.29 414.77 108.06"/><polygon class="cls-21" points="414.77 124.07 414.77 134.86 489.29 143.31 489.29 133.86 414.77 124.07"/><rect class="cls-22" x="467.67" y="144.85" width="10.5" height="5.07"/><polygon class="cls-23" points="478.17 144.85 481.39 143.64 481.39 148.09 478.17 149.92 478.17 144.85"/><polygon class="cls-24" points="478.17 144.85 481.39 143.64 481.39 140.34 478.17 141.06 478.17 144.85"/><polygon class="cls-25" points="467.68 144.85 468.06 141.09 478.17 141.06 478.17 144.85 467.68 144.85"/><polygon class="cls-22" points="468.06 141.09 468.37 138.28 478.17 138.28 478.17 141.06 468.06 141.09"/><polygon class="cls-23" points="478.17 138.28 481.39 137.74 481.39 140.34 478.17 141.06 478.17 138.28"/><polygon class="cls-23" points="468.37 138.28 468.94 134.86 478.17 134.86 478.17 138.28 468.37 138.28"/><polygon class="cls-24" points="478.17 134.86 481.39 134.62 481.39 137.74 478.17 138.28 478.17 134.86"/><polygon class="cls-25" points="472.92 134.86 472.92 136.26 468.71 136.26 468.56 137.12 472.92 137.12 472.92 138.28 474.27 138.28 474.27 137.14 478.17 137.14 478.17 136.3 474.3 136.3 474.3 134.86 472.92 134.86"/><polygon class="cls-22" points="468.94 134.86 469.86 132.16 478.17 132.27 478.17 134.86 468.94 134.86"/><polygon class="cls-23" points="478.17 132.27 481.39 132.27 481.39 134.62 478.17 134.86 478.17 132.27"/><rect class="cls-26" x="474.27" y="126.03" width="0.22" height="6.19"/><path class="cls-27" d="M471,126.56a1,1,0,0,0,0,.53,1.48,1.48,0,0,1,.08.38s.89-.34,1.1,0,1.56.08,1.56.08V126.3h-2.69S471.17,126.59,471,126.56Z" transform="translate(0.5 0.5)"/><path class="cls-22" d="M473.77,125.53a6.41,6.41,0,0,1-1.46,0,4.63,4.63,0,0,0-1.28,0s.13.93,0,1,1.29-.16,1.37,0,1.37,0,1.37,0Z" transform="translate(0.5 0.5)"/><path class="cls-13" d="M436.57,130.35s-2.68-1.4-3.76-.87a13.33,13.33,0,0,1-2.88.87,3.12,3.12,0,0,1-2.15-.49c-1.14-.71.33-.76-2.42-.5" transform="translate(0.5 0.5)"/><path class="cls-13" d="M465.42,136.19s-2.68-1.41-3.76-.88a13.6,13.6,0,0,1-2.88.88,3.17,3.17,0,0,1-2.15-.5c-1.14-.71.34-.75-2.42-.5" transform="translate(0.5 0.5)"/><path class="cls-13" d="M425.48,133.74s-2.68-1.41-3.76-.87a13.33,13.33,0,0,1-2.88.87,3.12,3.12,0,0,1-2.15-.49c-1.14-.71.34-.76-2.42-.5" transform="translate(0.5 0.5)"/><path class="cls-13" d="M450.57,135.34s-2.68-1.41-3.76-.87a13.33,13.33,0,0,1-2.88.87,3.17,3.17,0,0,1-2.15-.5c-1.14-.71.33-.75-2.42-.49" transform="translate(0.5 0.5)"/><path class="cls-13" d="M488.32,136.3s-1.57-1.24-2.2-.77a6.14,6.14,0,0,1-1.68.77,1.37,1.37,0,0,1-1.26-.44c-.67-.63.2-.66-1.41-.44" transform="translate(0.5 0.5)"/></svg>