<svg id="Layer_1" data-name="Layer 1" xmlns="http://www.w3.org/2000/svg" viewBox="0 0 399.32 336.64"><defs><style>.cls-1{fill:#fff;}.cls-2{fill:none;}</style></defs><title>vbb-white</title><path class="cls-1" d="M239.23,295.29c.19.33.31.57.45.79,1.28,2.11,7.92,4.62,10.26,3.88,3.72-1.19,4.49-.81,6,2.87,1.6,4,1.19,8,.19,12a37.53,37.53,0,0,0-1.38,11.45,6.82,6.82,0,0,1-3,6.17,30.71,30.71,0,0,1-7,3.77,6.93,6.93,0,0,1-5.25-.16c-3.65-1.41-7.28-2.92-11-4.08-4.45-1.39-5.52-5.16-4.76-9.05a16,16,0,0,1,1-3.23A87.42,87.42,0,0,0,228.52,309C230.21,303.07,234.09,298.82,239.23,295.29Z" transform="translate(-0.68)"/><path class="cls-1" d="M207.15,303.3a55.34,55.34,0,0,0,.22-9,7.87,7.87,0,0,1,.91-3.66,26.62,26.62,0,0,0,2.38-7.15c.6-4.31,3.23-7.55,6-10.34a12.37,12.37,0,0,1,9.61-3.75,4.93,4.93,0,0,1,4.38,3,11.11,11.11,0,0,0,4.7,5c2.94,1.79,4.68,4.69,6.38,7.57.26.44.44.87-.18,1.14-2.78,1.21-2.38,3.57-2,5.83a1.71,1.71,0,0,1-.87,2.11,25.68,25.68,0,0,0-12.09,16.47c-.41,1.77-1.18,2.33-3,2-3.79-.69-7.67-1-11.31-2.39C208.8,308.81,207.05,306.45,207.15,303.3Z" transform="translate(-0.68)"/><path class="cls-1" d="M259,248.41c6.94,5.43,13.07,11.19,15.44,19.86a32.77,32.77,0,0,1,1,4.47,11.12,11.12,0,0,1-3.92,10.58,30.17,30.17,0,0,1-12,6.23c-.38.1-1,.4-1,0-.22-1.67-2.3-2.22-2.25-4.1a2.26,2.26,0,0,0-2.23-2.19c-3-.4-5.75-2.73-9.07-1.54-.53.2-.83-.32-1.11-.67a19.92,19.92,0,0,1-4.9-13.21,6.53,6.53,0,0,1,3.67-6,62,62,0,0,1,6-2.69A17.29,17.29,0,0,0,259,248.41Z" transform="translate(-0.68)"/><path class="cls-1" d="M82.57,181.08C87,190.31,93.68,197.9,100.83,205a88.71,88.71,0,0,1,21,32.65,50.23,50.23,0,0,0,6.76,12.24,35.2,35.2,0,0,1-12.69-9.2c-.81-1-1.49-2.05-2.23-3.08-.38-.54-.51-1.62-1.52-1.06s-.08,1.26.08,1.87.49,1.47.82,2.39c-5.06-2.67-9.73-5.26-13.14-10-8.62-11.82-13.79-25-16.52-39.25a59.23,59.23,0,0,1-1.26-8.9A2.9,2.9,0,0,1,82.57,181.08Z" transform="translate(-0.68)"/><path class="cls-1" d="M256.85,294.43c1-3.26,3.74-3.71,6.29-4.63a28.25,28.25,0,0,0,10.23-6.36c3.32-3.23,3.91-7.33,3.29-11.66-.18-1.25.22-1.27,1.17-1.24,5.42.21,10.42,5.45,9.87,10.81a14.74,14.74,0,0,0,2.53,10.2,15.5,15.5,0,0,1,1.53,3,4.92,4.92,0,0,1-1.4,6,28.85,28.85,0,0,0-7.64,10.39c-1.56,3.55-4.22,3.61-7.74,2.93-.84-.16-.6-.75-.61-1.23a10.38,10.38,0,0,0-5.65-9.64,8.12,8.12,0,0,1-2.7-2.35A16.87,16.87,0,0,0,256.85,294.43Z" transform="translate(-0.68)"/><path class="cls-1" d="M331.75,66.82c-1.25,3.42.56,5.18,3.06,6.65,1.61,1,3.17,2,4.73,3,.47.31.92.68,1.34,0s-.16-1-.64-1.16c-1.45-.53-1.53-1.47-.91-2.68.15-.3.21-.63.34-.94.8-2,.9-4.38,3.1-5.6,4.19-2.35,8.5-4.69,13.39-2.61a7.57,7.57,0,0,0,8-1c1.2-.84,2.14-.72,2.71.59,1.23,2.83,2.2,5.75,1.58,8.9-.83,4.17-3.31,6.18-8.49,6.75-3.66.4-7.06,1.25-9.85,3.85a5.63,5.63,0,0,1-5.6,1.17,21.55,21.55,0,0,0-10.1-.35c-2.39.5-3.51-.34-4.28-2.75-.65-2-1.05-4.13-3.09-5.41a1.4,1.4,0,0,1-.08-2.28C328.71,71.07,330.56,69.3,331.75,66.82Z" transform="translate(-0.68)"/><path class="cls-1" d="M170.27,281.12c-6.25-2.82-12.62-3.34-18.82-4.71-5.38-1.18-10-4.16-14.5-7.36a66.75,66.75,0,0,1-20.5-24.19c-.18-.35-.35-.71-.5-1.08,0-.11,0-.24,0-.37s.29-.12.34-.08c6.58,6.26,14.73,9.66,23,12.84,7,2.67,13.86,5.52,20,9.95,3.81,2.78,7.26,5.84,8.74,10.59A30.63,30.63,0,0,0,170.27,281.12Z" transform="translate(-0.68)"/><path class="cls-1" d="M334,248.75c-2.82,1.42-5.55,2.88-8.36,4.18-6.38,3-12.93,5.37-20.08,5.6a4.18,4.18,0,0,1-1,0c-.42-.09-1.17.32-1.08-.64.07-.81.64-.68,1.17-.7,7.08-.19,13.61-2.45,20-5.34a66.07,66.07,0,0,0,8.64-4.56c-2.86,0-5.27-.12-7.83-1.37,6.07-3.71,11.36-8.3,18.32-9.82a2.24,2.24,0,0,0,1.52-.8c3.05-4.2,5.94-8.51,8.59-13-.77-.5-1.27.05-1.74.26a28.9,28.9,0,0,1-9.24,2.42c-.56,0-1.38.64-1.56-.52s.75-.81,1.3-.85c4.35-.31,8.25-2.07,12.18-3.71a3.48,3.48,0,0,0,1.58-1.76l3.54-6.49c1,.4,1.29,1,.6,1.93A4.51,4.51,0,0,0,360,217c.88,8.42-.3,16.5-4.46,24-.28.52-.64,1-1.15,1.75-1.64-4.4-2.55-8.6-2-13,.06-.47.6-1.11-.18-1.35-.54-.17-.61.57-.92.88-2.7,2.79-3.27,6.38-3.85,10-.95,5.85-2.9,11.52-3.21,17.49,0,.53-.19,1-.73,1-.81,0-.61-.74-.6-1.23.06-4.57,1.34-8.94,2.28-13.36a25.74,25.74,0,0,0,1.05-6.56c-1.19,1.5-2.1,2.6-3,3.74a95.19,95.19,0,0,1-7.86,9.59c-1.63,1.68-1.94,3.88-2.85,5.84-2.7,5.81-6.51,11-9.45,16.65-.57,1.09-1.14,2.19-2,3.81a32.72,32.72,0,0,1,1.31-12.39.81.81,0,0,0-1,.16C314.07,270.71,305.7,276,297,280.77c-2.62,1.42-5,3.28-7.55,5-.72-1-.23-1.52.56-2.07a106.66,106.66,0,0,1,12.4-7.68c6.36-3.23,11.82-7.74,17.2-12.35a146.7,146.7,0,0,0,13.71-13.49C333.59,249.79,334.14,249.53,334,248.75Z" transform="translate(-0.68)"/><path class="cls-1" d="M255.87,329.06a105.49,105.49,0,0,1,2.3-17.94,14.72,14.72,0,0,0-2.08-11c-.67-1.06-1.1-1.8-.1-2.84.32-.34.34-1,.53-1.54a15.24,15.24,0,0,1,7.89,5.11,16.08,16.08,0,0,0,4.34,3.78,8.78,8.78,0,0,1,.91,14.42,27,27,0,0,0-7,7.61C261.48,328.88,256,330.07,255.87,329.06Z" transform="translate(-0.68)"/><path class="cls-1" d="M248.3,251.69c-1,.58-1.85,1-2.65,1.49-6.92,4-9.16,8.73-8.08,16.65a23.13,23.13,0,0,0,5.1,12c.42.51,1.05,1.16.3,1.63s-.78-.59-1.05-1c-1.87-2.71-3.85-5.29-6.84-6.89a6.06,6.06,0,0,1-2.77-3.07c-1.68-4-5-5.25-9.83-4a17.39,17.39,0,0,0-5,2.38c-1.17.75-1.58.29-1.94-.81-1-3.17-.43-5,2.41-6.83a24.2,24.2,0,0,1,6.42-2.71,15.36,15.36,0,0,0,8.14-5.81c2.44-3.3,5.3-5.81,9.81-5.46A10.07,10.07,0,0,1,248.3,251.69Z" transform="translate(-0.68)"/><path class="cls-1" d="M334.08,63.63a34,34,0,0,1-5.62-4,1.54,1.54,0,0,1-.37-1.84,7.78,7.78,0,0,0,0-4.51c-.6-2.67.69-4.39,3.46-4.6a9.06,9.06,0,0,0,3.32-.61A3.11,3.11,0,0,0,336.94,45a5.45,5.45,0,0,1,5.51-6,11.51,11.51,0,0,1,4.82,1.08,11.79,11.79,0,0,0,6.44.93,2.56,2.56,0,0,1,3.11,1.82A9.72,9.72,0,0,0,359.55,47c2.1,1.65,4.46,1.54,6.89,1.23s3.12.07,3.56,2.52c.35,1.89.72,3.65,2.51,4.78.73.46.65,1.22.29,2a10.81,10.81,0,0,1-2.43,3.15c-1.15,1.09-2.26,2.49-3.68.23-.63-1-1.57-.41-2.32-.06-.93.44-1.81,1-3,1.65a30.59,30.59,0,0,0,1.22-7.55,4.52,4.52,0,0,0-2.26-4.39,23.71,23.71,0,0,1-5.05-4.21,6.55,6.55,0,0,0-5-2.07,15.27,15.27,0,0,0-7.5,1.82c-1.6.91-2.41,3-4.72,3-.58,0-.83,1-1.17,1.53C334.49,54.56,334.26,59,334.08,63.63Z" transform="translate(-0.68)"/><path class="cls-1" d="M378.36,193.79a70.26,70.26,0,0,1-15.71,15.79c-.74,0-.67-.4-.48-.88a85.52,85.52,0,0,0-.21-15,30.82,30.82,0,0,1,5.49-21.08,30.09,30.09,0,0,0,0,3.36,11.4,11.4,0,0,0,2.86,6.69c1,1,.87,1.72,0,2.67a17.4,17.4,0,0,1-3,2.91c-.34.23-.87.37-.43,1s.89.4,1.3.06c.87-.71,1.71-1.47,2.82-2.44a19.91,19.91,0,0,1-2.26,6.43c-.22.41-.47.81-.72,1.2s-.73,1,.06,1.48.81-.36,1-.69c1.72-2.47,2.62-5.29,3.7-8.17a21.63,21.63,0,0,1,.56,2.38c.06.6.26.85.84.8s.46-.52.48-.9c.07-1.3-.55-2.45-.84-3.83,3.57,1,6.14-.42,8.06-3.29C382.88,182.46,380.59,190.71,378.36,193.79Z" transform="translate(-0.68)"/><path class="cls-2" d="M370.33,182.66c1,1,.87,1.72,0,2.67a17.4,17.4,0,0,1-3,2.91c-.34.23-.87.37-.43,1s.89.4,1.3.06c.87-.71,1.71-1.47,2.82-2.44a19.91,19.91,0,0,1-2.26,6.43c-.22.41-.47.81-.72,1.2s-.73,1,.06,1.48.81-.36,1-.69c1.72-2.47,2.62-5.29,3.7-8.17a21.63,21.63,0,0,1,.56,2.38c.06.6.26.85.84.8s.46-.52.48-.9c.07-1.3-.55-2.45-.84-3.83C373.31,185.17,373.31,185.17,370.33,182.66Z" transform="translate(-0.68)"/><path class="cls-1" d="M156.57,278.73a58.67,58.67,0,0,1,9.32,2.19,22.7,22.7,0,0,1,9.07,5.26c2.33,2.3,5.17,3.93,8.44,5.85-9.32-.5-18.08-.87-26.45-3.88-4.67-1.67-8.8-4.41-13.06-6.88A60.25,60.25,0,0,0,132,275.66C132.16,274.74,148.8,277.52,156.57,278.73Z" transform="translate(-0.68)"/><path class="cls-1" d="M381.47,135.6a23.85,23.85,0,0,1-2.78,11.88,1.18,1.18,0,0,1-1.47.8c-1.75-.21-3.58-.42-5.1.9-.48.42-.62-.08-.85-.4a19.66,19.66,0,0,1-3.45-15.15,12.43,12.43,0,0,1,1.61-4.47c1.29-2.06,3.07-3.43,5.55-3.31a6.24,6.24,0,0,1,5.31,3.69A11.14,11.14,0,0,1,381.47,135.6Z" transform="translate(-0.68)"/><path class="cls-1" d="M379.55,148.89a35.71,35.71,0,0,1,4-6.11,21,21,0,0,1,6.07-4.81c2.63-1.34,5.19-1.64,7.65.33s3.1,4.78,2.46,7.75a9.19,9.19,0,0,1-5,6.58q-2.69,1.34-5.25,2.86a6.47,6.47,0,0,1-3.47.64.86.86,0,0,1-1-.77A9.8,9.8,0,0,0,379.55,148.89Z" transform="translate(-0.68)"/><path class="cls-1" d="M384,158.08c-.05,5.38-4.46,10.17-9.33,10.14-4.35,0-8-4.46-8-9.59a9.65,9.65,0,0,1,9.13-9.15A8.33,8.33,0,0,1,384,158.08Z" transform="translate(-0.68)"/><path class="cls-1" d="M353.37,61.41c1.85-2.6,2.58-5.26,1.62-8.23a6.15,6.15,0,0,0-10.41-2.38c-1.24,1.35-3.24,2.84-2.08,5s3.51,2.56,5.75,2.51c2.79,0,4-2.62,2.55-5-.27-.43-.46-1.06-1.18-.61-.54.34-.41.74-.12,1.18.49.74.94,1.52.19,2.35a2.49,2.49,0,0,1-2.59.58c-1.22-.29-2.77-.41-3.28-1.61s.78-2.29,1.55-3.23a5.4,5.4,0,0,1,6.05-1.28c1.53.66,2.77,3.27,2.6,5.48-.34,4.46-4,7-8.42,5.79-1.53-.43-3.09-.78-4.6-1.28-2-.65-2.62-1.82-2.13-3.84.73-3,2.23-5.67,3.44-8.47a2.29,2.29,0,0,1,.48-.64c2.44-2.52,9.38-2.68,11.8-.19a21.56,21.56,0,0,0,4.73,4,3.67,3.67,0,0,1,1.87,4.06c-.28,2-.25,4.13-1,6.09-.46,1.16-1.07,1.56-2.28,1A13.49,13.49,0,0,0,353.37,61.41Z" transform="translate(-0.68)"/><path class="cls-1" d="M357.66,173.12a20.48,20.48,0,0,1-2.36-.26c-5.22-1.26-7-5.54-4.37-10.24A10.08,10.08,0,0,1,364,158.44c.68.31,1.29.63,1.35,1.53A10.87,10.87,0,0,0,368.7,167c.5.5.49.85-.06,1.26C365.31,170.79,361.79,172.85,357.66,173.12Z" transform="translate(-0.68)"/><path class="cls-1" d="M247.06,282.68c2.31.68,4.73,1.38,7.14,2.1a.92.92,0,0,1,.66.91c0,1.31.85,2.13,1.64,3.07a2.52,2.52,0,0,1-.23,3.75,3.37,3.37,0,0,0-1.4,3.27c.18,1.26-.64,1.76-1.73,2-1.42.34-2.83.73-4.24,1.08-.25.07-.57.2-.77.11-2.32-1-4.63-2-6.91-3.05-.19-.09-.3-.62-.25-.91a14,14,0,0,0-.27-4.95,2.1,2.1,0,0,1,1.19-2.49,3.75,3.75,0,0,0,2.2-2.88C244.36,283.11,245.68,282.93,247.06,282.68Z" transform="translate(-0.68)"/><path class="cls-1" d="M365.28,157.44a26.74,26.74,0,0,0-4.8-1.41c-4.85-1.08-8.28-6.43-7.08-10.87,1-3.63,4.24-5.34,7.58-3.66s6.75,3.51,8.34,7.34c.38.91.62,1.4-.36,2.1C366.78,152.48,365.81,154.82,365.28,157.44Z" transform="translate(-0.68)"/><path class="cls-1" d="M112.14,242.14a10.15,10.15,0,0,1,3.47,4A59.77,59.77,0,0,0,122,256.29c-.94.53-1.58,0-2.2-.33a49.43,49.43,0,0,1-10.25-6.55c-6.65-5.35-12.78-11.35-19.88-16.15C90,233,105.63,237.64,112.14,242.14Z" transform="translate(-0.68)"/><path class="cls-1" d="M382.07,173.58c0,3,.06,5.28-1,7.39-1.95,4-5.8,4.65-9,1.63a11.58,11.58,0,0,1-2.3-12.93c.43-.89.8-1.13,1.81-.69a8,8,0,0,0,7.14-.38c.87-.46,1.18-.44,1.66.43C381.31,170.69,382.48,172.25,382.07,173.58Z" transform="translate(-0.68)"/><path class="cls-1" d="M205.94,298c-10.06-2.44-20.07-4.91-28.45-11.41-5.67-4.4-8.93-10.29-10.59-17.17a8.36,8.36,0,0,1,0-1.18,56.12,56.12,0,0,0,4.59,7.26c5,6.47,11.57,10.69,19.14,13.6a64,64,0,0,1,12.06,5.72A8,8,0,0,1,205.94,298Z" transform="translate(-0.68)"/><path class="cls-1" d="M381.32,167a12.48,12.48,0,0,0,3.91-7.42.91.91,0,0,1,.8-.94c5.54-1.2,11.17,4.27,10,9.75-1,4.5-4.45,6.23-8.58,4.22a15.48,15.48,0,0,1-4.34-3.51C382.5,168.41,381.94,167.68,381.32,167Z" transform="translate(-0.68)"/><path class="cls-1" d="M213.65,274.51c-4.89,5.34-4.31,12.58-7.79,18.12-2.44-3.74-3.23-7.83-1.22-12.22C206.34,276.71,209.48,275.17,213.65,274.51Z" transform="translate(-0.68)"/><path class="cls-1" d="M312.32,32.21a19.9,19.9,0,0,0-7.53,2.08c-.7.4-1.13-.08-1.6-.29-2.56-1.16-4.67-3-6.91-4.68,1.75-1.62,4.16-2.06,8.35-1.93C308.06,27.5,309.78,30.08,312.32,32.21Z" transform="translate(-0.68)"/><path class="cls-1" d="M257,249a13.59,13.59,0,0,1-6.65,7.79,33.71,33.71,0,0,1-4.73,2.07,27.94,27.94,0,0,0-6.48,3.63c1.55-4,3.35-6,7.63-8.35C250.12,252.28,253.66,250.87,257,249Z" transform="translate(-0.68)"/><path class="cls-1" d="M286.62,22.67c3.23-1.85,6.64-1.72,10-1.67.46,0,.93.7,1.36,1.1a28.74,28.74,0,0,0,4.51,3.41C296.57,28.47,291.54,26.36,286.62,22.67Z" transform="translate(-0.68)"/><path class="cls-1" d="M322.15,37.22a18.3,18.3,0,0,1-9.42-14.15,30.77,30.77,0,0,1,7.33,5.34c.14.14.36.28.37.44A40.55,40.55,0,0,0,322.15,37.22Z" transform="translate(-0.68)"/><path class="cls-1" d="M325.67,41.3a19.78,19.78,0,0,0-10.5,3,1.16,1.16,0,0,1-1.45,0c-1.27-.85-2.56-1.68-3.82-2.54-.57-.39-.93-.84,0-1.26,4.79-2.2,9.65-2,14.56-.46.17,0,.31.24.45.38S325.25,40.8,325.67,41.3Z" transform="translate(-0.68)"/><path class="cls-1" d="M319.28,37.43c-3.58-.06-6.87.24-9.91,1.79a1.13,1.13,0,0,1-1.29-.1c-1.33-.88-2.68-1.72-4.13-2.65A16.41,16.41,0,0,1,312,33.7C315.26,33.29,317.2,35.12,319.28,37.43Z" transform="translate(-0.68)"/><path class="cls-1" d="M326.86,40.31c-3.81-3.49-4.91-7.6-4.9-12.16,0-1.28.52-1.33,1.41-.67.64.48,1.29.94,1.9,1.46,1.56,1.33,2.8,2.72,2.05,5.09C326.72,35.94,326.94,38,326.86,40.31Z" transform="translate(-0.68)"/><path class="cls-1" d="M292,19.6c-2.36-.15-4.35,1.89-6.72,1.21a22,22,0,0,1-7.66-3.74C280.94,15.24,285.93,14.85,292,19.6Z" transform="translate(-0.68)"/><path class="cls-1" d="M345,63.41c-3.85,1.13-5.83,3.74-6.6,7.5-.93-3.61-3.38-6.77-2.66-10.95C338.81,61.15,341.59,62.7,345,63.41Z" transform="translate(-0.68)"/><path class="cls-1" d="M258.67,0a16.28,16.28,0,0,1,8.79,2.41,13.34,13.34,0,0,1,1.68,1.39,2,2,0,0,1,.74,2.13c-.26.62-1.18.18-1.8.18C264,6.16,260.7,4.74,258.9.8A6.17,6.17,0,0,1,258.67,0Z" transform="translate(-0.68)"/><path class="cls-1" d="M313.33,30.86c-3.22-1.81-7.38-6.75-9.2-11.08C309.87,21.35,312.51,25.36,313.33,30.86Z" transform="translate(-0.68)"/><path class="cls-1" d="M295.37,257.14a3.47,3.47,0,0,1,3.67-2.92,3,3,0,0,1,3,3.26,3.66,3.66,0,0,1-3.74,3.09A3.34,3.34,0,0,1,295.37,257.14Z" transform="translate(-0.68)"/><path class="cls-1" d="M294.82,15.29c4.77,2.14,8.73,4.91,10.51,9.83C302.06,24.6,295.78,18.91,294.82,15.29Z" transform="translate(-0.68)"/><path class="cls-1" d="M344.71,265.18a3,3,0,0,1-2.87-3c.07-1.22,1.63-3.31,2.47-3.29,1.51,0,3.5,1.9,3.47,3.27A3.11,3.11,0,0,1,344.71,265.18Z" transform="translate(-0.68)"/><path class="cls-1" d="M327.06,42.7c-2.45,4.11-7.71,4.49-10.5,3.77-.32-.08-.9,0-.86-.6s.48-.58.83-.77A18.81,18.81,0,0,1,327.06,42.7Z" transform="translate(-0.68)"/><path class="cls-1" d="M281.54,14.19c-3.44,1.91-6.41.94-9.25-1.13-.32-.24-.76-.37-.69-.86s.6-.4.95-.44c1.85-.24,3.71-.43,5.55-.7.36-.06.59-.09.85.21C279.8,12.27,280.68,13.24,281.54,14.19Z" transform="translate(-0.68)"/><path class="cls-1" d="M294.37,18.73C289.92,17.14,287,14,285,9.32,289.51,11.28,294.58,18.56,294.37,18.73Z" transform="translate(-0.68)"/><path class="cls-1" d="M329.34,30.77c3.46,3.52,4.21,6.7-.72,10.47A26.35,26.35,0,0,1,329.34,30.77Z" transform="translate(-0.68)"/><path class="cls-1" d="M335.51,45.14c.07.94-.59,1.33-1.21,1.71a1.25,1.25,0,0,1-1.77-.32,13.09,13.09,0,0,0-2.79-2.23c-.39-.26-1.29-.29-1-.92s1-1.7,1.69-1.46a15.37,15.37,0,0,1,4.8,2.33C335.44,44.41,335.43,44.86,335.51,45.14Z" transform="translate(-0.68)"/><path class="cls-1" d="M278.73,8.63c4.3.23,6.19,2.87,7.55,6.32C282.63,14.23,280.86,11.42,278.73,8.63Z" transform="translate(-0.68)"/><path class="cls-1" d="M307.08,282.36c-.15.79-.39,2-.63,3.26-.09.46-.18,1-.75,1s-.63-.61-.77-1c-.77-2.3-.39-4.73-.74-7.08-.07-.46.31-.77.71-.4C306,279.13,307.22,280.15,307.08,282.36Z" transform="translate(-0.68)"/><path class="cls-1" d="M339.9,224.57c-.17,1.3-.65,2.25-2.1,2.22s-2.28-.67-2.31-2.15.6-2.51,2-2.49A2.48,2.48,0,0,1,339.9,224.57Z" transform="translate(-0.68)"/><path class="cls-1" d="M264.87,7.16c3.23.52,6.35-.31,8.18,2.77C270.05,11.13,268.57,10.68,264.87,7.16Z" transform="translate(-0.68)"/><path class="cls-1" d="M334.5,67.48c1.37-.17,1.52.92,1.74,1.88s1.41,2.57.43,3.21-1.91-1-2.89-1.62c-1.41-.86-.84-2-.46-3.15C333.53,67.18,334,67.26,334.5,67.48Z" transform="translate(-0.68)"/><path class="cls-1" d="M277.66,9.57c-2.69.64-5.34-1.4-6.45-5.08C273.71,6,276.45,6.73,277.66,9.57Z" transform="translate(-0.68)"/><path class="cls-1" d="M337.36,59.05c-1.33-.36-1.73-1.12-1.46-2,.73-2.56,1.32-5.23,3.69-7C339.06,53.1,336.91,55.68,337.36,59.05Z" transform="translate(-0.68)"/><path class="cls-1" d="M333,225.44c-.8-.6-2.21-.44-2.32-1.79,0-.39.59-.65.95-.42,1,.63,2.72.33,2.63,2.35a2.94,2.94,0,0,1-1.24,2.31.76.76,0,0,1-.7-.16C331.68,226.8,332.79,226.35,333,225.44Z" transform="translate(-0.68)"/><path class="cls-1" d="M345.42,266.52c1.1-.28,1.35.76,1.91,1.33a.59.59,0,0,1-.13,1c-.35.23-.68.37-1-.06s-.81-1.52-1.34,0c-.12.35-1.11.23-1.15-.14-.08-.71-.22-1.63.7-2A3,3,0,0,1,345.42,266.52Z" transform="translate(-0.68)"/><path class="cls-1" d="M301.12,274.7a8.16,8.16,0,0,1-5.38-2.9A8.87,8.87,0,0,1,301.12,274.7Z" transform="translate(-0.68)"/><path class="cls-1" d="M293.69,256.48c-.58-.87-1.18-1.72-1.73-2.61-.15-.25-.43-.67-.09-.86s1-.19,1.08-.07c.48,1.13,2.29,1.92,1,3.54Z" transform="translate(-0.68)"/><path class="cls-1" d="M293.69,256.48h.25a1.9,1.9,0,0,1-.82,2.39c-.44.24-.75.42-1.17-.07s-.22-.78.2-1.1S293.18,256.89,293.69,256.48Z" transform="translate(-0.68)"/><path class="cls-1" d="M375.7,101c-3.13-8-10.39-12.07-16.36-18a34.09,34.09,0,0,1-.22,9.84,130,130,0,0,0-1.59,13.9,37.57,37.57,0,0,0,.88,10.15c1.22,5.18,5.21,8.18,9.22,11.12.71.53.89-.09,1.21-.47,2.52-3,5.58-3.84,9.41-2.32C378.81,116.89,378.76,108.79,375.7,101Zm-2.33,22.74a1.05,1.05,0,0,1-.66.63c-.67.11-.86-.5-1.11-1a82.26,82.26,0,0,0-5.38-8.42c-.43-.6-.87-1.18-1.33-1.75s-.55-.9.07-1.34.81.2,1,.5c1.44,2,2.85,4,4.27,6,.51.22.54,0,.45-.44a72.5,72.5,0,0,0-3.81-13.41c-.21-.55-1-1.3,0-1.7,1.08-.46,1.1.71,1.33,1.29a73.43,73.43,0,0,1,4.07,14.38,2.64,2.64,0,0,0,.61,1.69,31.08,31.08,0,0,0,1.07-9.67c0-.6-.61-1.64.65-1.71,1.08-.06.75,1,.79,1.5A38.64,38.64,0,0,1,373.37,123.75Z" transform="translate(-0.68)"/><path class="cls-1" d="M118.38,200a1.64,1.64,0,0,1-1.11-.44l-.1-.1a1.61,1.61,0,0,1-.54-1.12,1.64,1.64,0,0,1,.4-1.1c-.18-1-.27-2-.27-2-.1-1.09-.19-2.18-.3-3.28q-.3-3.28-.64-6.57c-.45-4.35-1-9-1.56-13.65a1.52,1.52,0,0,1,.34-1.17,1.55,1.55,0,0,1,1.15-.49,1.61,1.61,0,0,1,1.63,1.41c.68,5.47,1.28,10.82,1.79,15.89q.4,4.13.76,8.24c0,.21,0,.44.09.66a3.74,3.74,0,0,1-.5,3.19A1.48,1.48,0,0,1,118.38,200Z" transform="translate(-0.68)"/><path class="cls-1" d="M115.25,171.62q.85,6.84,1.57,13.68c.22,2.19.44,4.39.64,6.58.1,1.1.2,2.19.29,3.29,0,.21.4,4,1,3.4s-.3-1.33-.8-.8l-.11.11a.57.57,0,0,0,0,.8l.16.15a.57.57,0,0,0,.8,0c.71-.84.26-2.08.17-3.11-.23-2.74-.49-5.49-.76-8.23q-.78-7.94-1.78-15.87c-.09-.71-1.23-.72-1.14,0Z" transform="translate(-0.68)"/><path class="cls-1" d="M125.92,202.73a14.71,14.71,0,0,1-12-6.07,1.44,1.44,0,0,1-.14-1.54,1.61,1.61,0,0,1,1.45-.87,1.58,1.58,0,0,1,1.28.65,11.54,11.54,0,0,0,9.4,4.75,11.07,11.07,0,0,0,10.34-6.75,12.3,12.3,0,0,0,.2-9.06,5.44,5.44,0,0,0-3.3-3.13,7.66,7.66,0,0,0-2.57-.43,11.58,11.58,0,0,0-9.21,5.35,1.54,1.54,0,0,1-1.31.73,1.63,1.63,0,0,1-1.39-.8,1.52,1.52,0,0,1,0-1.54,26.62,26.62,0,0,0,3.25-8.7,22.47,22.47,0,0,0,.38-4.54v-.46a8.31,8.31,0,0,0,0-1l-1.62-.42-1,.74a44.89,44.89,0,0,0-10.5,12.17,1.55,1.55,0,0,1-1.32.76h0a1.66,1.66,0,0,1-1.41-.82,1.52,1.52,0,0,1,0-1.54,48.83,48.83,0,0,1,7.63-9.8l.62-.64c1.71-1.76,4.56-4.71,7.09-4.71a3,3,0,0,1,1.16.22c3.06,1.25,2.56,5.94,2.32,8.2l0,.31a29.13,29.13,0,0,1-1,5,13.24,13.24,0,0,1,6.26-1.66,10.91,10.91,0,0,1,3.93.72c5.26,2,6.84,8.86,5.32,14.3A14.33,14.33,0,0,1,125.92,202.73Z" transform="translate(-0.68)"/><path class="cls-1" d="M108.41,181.31a45.67,45.67,0,0,1,10.76-12.45l1.35-1,2.61.68c.34.39.23,1.73.24,2.25a24.21,24.21,0,0,1-.39,4.74,27.56,27.56,0,0,1-3.38,9,.57.57,0,0,0,1,.57c2.62-4.05,8.07-7,13-5.33,5.34,1.84,5.55,9.2,3.69,13.53-3.79,8.86-15.83,9.86-21.46,2.2-.43-.58-1.41,0-1,.58,6.69,9.09,21.06,6.9,24.14-4.16,1.27-4.57.27-11.18-4.72-13.1-5.45-2.09-11.63,1.11-14.6,5.71l1,.57a28.33,28.33,0,0,0,3.78-11.39c.2-1.93.82-6.46-1.67-7.48s-6.34,3.48-7.79,4.91a47.67,47.67,0,0,0-7.47,9.61.57.57,0,0,0,1,.57Z" transform="translate(-0.68)"/><path class="cls-1" d="M143.58,191a1.48,1.48,0,0,1-1.49-1.47,1.57,1.57,0,0,1,1.47-1.66,33.59,33.59,0,0,0,6.69-1.21,1.75,1.75,0,0,1,.44-.07,1.55,1.55,0,0,1,1.52,1.37,1.52,1.52,0,0,1-1.11,1.71,36.44,36.44,0,0,1-7.39,1.32Z" transform="translate(-0.68)"/><path class="cls-1" d="M143.63,190a35.18,35.18,0,0,0,7.2-1.28.57.57,0,0,0-.3-1.09,34.33,34.33,0,0,1-6.9,1.24c-.72.06-.72,1.19,0,1.13Z" transform="translate(-0.68)"/><path class="cls-1" d="M148.7,199.84a5.88,5.88,0,0,1-3.25-1c-3.57-2.39-3.58-7-3.27-9.58.53-4.3,2.68-6.91,5.76-7h.13a4.1,4.1,0,0,1,3.17,1.39,6.1,6.1,0,0,1,1.26,4.77,1.61,1.61,0,0,1-1.62,1.42h0a1.52,1.52,0,0,1-1.15-.5,1.44,1.44,0,0,1-.34-1.16,2.57,2.57,0,0,0-.59-2,1.54,1.54,0,0,0-1.13-.57,2.07,2.07,0,0,0-1.54,1.06,7.9,7.9,0,0,0-.93,3.92,7.37,7.37,0,0,0,.9,4.49,3.53,3.53,0,0,0,2.73,1.64,2.21,2.21,0,0,0,1.87-1.09,1.53,1.53,0,0,1,1.3-.7,1.63,1.63,0,0,1,1.43.85,1.44,1.44,0,0,1-.1,1.53A5.54,5.54,0,0,1,148.7,199.84Z" transform="translate(-0.68)"/><path class="cls-1" d="M151.51,188.29c.3-2.38-.76-5.11-3.55-5-3.2.08-4.46,3.46-4.78,6.11-.38,3,0,6.76,2.82,8.63a4.59,4.59,0,0,0,6.51-1.24c.4-.61-.58-1.18-1-.58-1.73,2.57-4.83,1.61-6.26-.54a8.43,8.43,0,0,1-1.07-5.09,9.09,9.09,0,0,1,1.1-4.43c2.13-3.18,5.45-.8,5.08,2.18-.09.72,1,.71,1.13,0Z" transform="translate(-0.68)"/><path class="cls-1" d="M161.87,201.27a5.74,5.74,0,0,1-.71,0A6.85,6.85,0,0,1,155,195c-.28-3.36.8-8,3.83-10.31a7,7,0,0,1,4.14-1.42,6.17,6.17,0,0,1,4.17,1.62,1.48,1.48,0,0,1,.4,1.65,1.62,1.62,0,0,1-1.5,1h0a1.59,1.59,0,0,1-1.05-.41,3.31,3.31,0,0,0-2.14-1c-2.64,0-4.7,5.29-4.73,7.94a4.26,4.26,0,0,0,1.17,3,3.5,3.5,0,0,0,2.53,1h.25a5.08,5.08,0,0,0,4.12-3.36,1.44,1.44,0,0,1,1.33-.9,1.62,1.62,0,0,1,1.35.75,1.57,1.57,0,0,1,.13,1.51A8,8,0,0,1,161.87,201.27Z" transform="translate(-0.68)"/><path class="cls-1" d="M166.48,185.64a5.43,5.43,0,0,0-7-.14c-2.65,2-3.71,6.26-3.44,9.42a5.83,5.83,0,0,0,5.24,5.32c3.09.31,5.67-1.79,6.84-4.49.29-.67-.69-1.24-1-.58a6.08,6.08,0,0,1-5,4,4.79,4.79,0,0,1-5-5.07c0-3.77,3.6-12.13,8.54-7.63.54.49,1.34-.31.8-.8Z" transform="translate(-0.68)"/><path class="cls-1" d="M168.93,201.55a1.44,1.44,0,0,1-1.33-.89c-1.39-3.19-1.56-7-1.73-10.6-.06-1.27-.12-2.46-.23-3.6-.59-6.37-1-11.69-1.39-16.75a1.48,1.48,0,0,1,.39-1.13,1.53,1.53,0,0,1,1.14-.48,1.58,1.58,0,0,1,1.6,1.47c.32,4.51.71,9.25,1.18,14.48.22,2.41.45,4.83.68,7.24.06.64.1,1.3.15,2a18.51,18.51,0,0,0,1,6,1.56,1.56,0,0,1-.13,1.52,1.64,1.64,0,0,1-1.35.75Z" transform="translate(-0.68)"/><path class="cls-1" d="M165.25,169.64q.6,8.37,1.39,16.73c.41,4.41.09,9.79,1.88,13.88.29.67,1.26.09,1-.57-1.08-2.47-1-5.62-1.25-8.3-.24-2.41-.46-4.82-.68-7.24q-.66-7.24-1.19-14.5c0-.72-1.18-.73-1.13,0Z" transform="translate(-0.68)"/><path class="cls-1" d="M203.88,201a1.54,1.54,0,0,1-.55-.11,36.49,36.49,0,0,1-5.16-2.43,14.81,14.81,0,0,1-6.08,1.61,5.75,5.75,0,0,1-5.86-4.26c-.83-2.69.54-5.49,1.7-7.76a16.65,16.65,0,0,1-.72-1.62c-2.44-6.17-2.22-16.55,4.54-20a5.58,5.58,0,0,1,7.45,2.19c1.6,2.65,1.23,6.12-1,9.52a34.34,34.34,0,0,1-2.29,3c-.74.89-1.43,1.73-2.05,2.64a35.65,35.65,0,0,0-2.39,4.2,22.4,22.4,0,0,0,6.81,6.88l.43-.29a1.51,1.51,0,0,1,2.31.87,1.52,1.52,0,0,1,0,1,30.72,30.72,0,0,0,3.35,1.5,1.6,1.6,0,0,1,1,1.8,1.5,1.5,0,0,1-1.46,1.27ZM190,191.31c-.64,1.9-.7,3.5-.14,4.43a3.12,3.12,0,0,0,2.72,1.25h.29a6.3,6.3,0,0,0,2.39-.52A25.08,25.08,0,0,1,190,191.31Zm4.29-22.41a2.68,2.68,0,0,0-.62.07c-1,.26-2.17,1.58-2.83,2.63a14.87,14.87,0,0,0-1.5,11,17.57,17.57,0,0,0,.52,1.85,63.41,63.41,0,0,1,4.64-6.54c1.57-2,3.09-4.37,2.48-6.68A2.91,2.91,0,0,0,194.26,168.9Z" transform="translate(-0.68)"/><path class="cls-1" d="M204,198.82c-7.25-2.76-13.9-8.14-15.65-16A16,16,0,0,1,190,171.07c.72-1.15,2-2.72,3.44-3.07a3.82,3.82,0,0,1,4.52,2.95c.73,2.77-1,5.48-2.66,7.55a49.69,49.69,0,0,0-5.88,8.83c-1.14,2.35-3,5.41-2.19,8.13,1.84,5.93,9.17,3.17,12.64.85.6-.4,0-1.38-.57-1-2,1.34-4.27,2.8-6.77,2.65-5.39-.31-4.35-5.33-2.77-8.73a43.74,43.74,0,0,1,3.3-6.1c1.32-2,3-3.62,4.34-5.6,1.62-2.46,2.63-5.73,1-8.45a4.61,4.61,0,0,0-6.15-1.82c-6.3,3.21-6.27,13.15-4.06,18.73,2.69,6.82,8.88,11.37,15.54,13.9.69.26,1-.84.3-1.09Z" transform="translate(-0.68)"/><path class="cls-1" d="M225.79,199.44a1.59,1.59,0,0,1-1.1-.44l-.11-.1a1.56,1.56,0,0,1-.53-1.12,1.63,1.63,0,0,1,.39-1.1c-.18-1-.27-2-.27-2-.09-1.09-.19-2.19-.29-3.28-.2-2.19-.42-4.38-.64-6.57-.45-4.35-1-9-1.57-13.65A1.47,1.47,0,0,1,222,170a1.53,1.53,0,0,1,1.14-.5,1.62,1.62,0,0,1,1.63,1.42c.68,5.43,1.28,10.78,1.79,15.89.27,2.75.53,5.49.76,8.24,0,.21.06.44.09.66a3.77,3.77,0,0,1-.49,3.19A1.5,1.5,0,0,1,225.79,199.44Z" transform="translate(-0.68)"/><path class="cls-1" d="M222.67,171.06q.86,6.84,1.56,13.68.35,3.28.64,6.58l.3,3.29c0,.21.39,4,1,3.4s-.3-1.33-.8-.8l-.11.11a.57.57,0,0,0,0,.8l.16.15a.57.57,0,0,0,.8,0c.72-.85.26-2.09.18-3.11-.24-2.75-.49-5.49-.77-8.23q-.78-8-1.78-15.87c-.09-.71-1.22-.72-1.13,0Z" transform="translate(-0.68)"/><path class="cls-1" d="M233.34,202.17a14.69,14.69,0,0,1-12-6.07,1.44,1.44,0,0,1-.15-1.54,1.63,1.63,0,0,1,1.45-.87,1.58,1.58,0,0,1,1.28.65,11.57,11.57,0,0,0,9.4,4.74,11.07,11.07,0,0,0,10.35-6.74,12.4,12.4,0,0,0,.2-9.06,5.53,5.53,0,0,0-3.31-3.14,7.87,7.87,0,0,0-2.57-.42,11.58,11.58,0,0,0-9.21,5.35,1.52,1.52,0,0,1-1.3.72,1.61,1.61,0,0,1-1.4-.8,1.52,1.52,0,0,1,0-1.53,26.88,26.88,0,0,0,3.26-8.7,23.17,23.17,0,0,0,.37-4.54c0-.12,0-.28,0-.46s0-.68,0-1l-1.61-.42-1,.74a44.6,44.6,0,0,0-10.51,12.17,1.55,1.55,0,0,1-1.32.76h0a1.63,1.63,0,0,1-1.4-.82,1.49,1.49,0,0,1,0-1.54,49.2,49.2,0,0,1,7.63-9.8l.63-.64c1.7-1.76,4.55-4.71,7.09-4.71a3,3,0,0,1,1.16.22c3,1.25,2.55,5.94,2.31,8.2l0,.31a27.52,27.52,0,0,1-1,5,13.13,13.13,0,0,1,6.27-1.66,10.82,10.82,0,0,1,3.92.72c5.26,2,6.84,8.85,5.32,14.3A14.31,14.31,0,0,1,233.34,202.17Z" transform="translate(-0.68)"/><path class="cls-1" d="M215.82,180.75a45.7,45.7,0,0,1,10.76-12.45l1.36-1,2.6.68c.35.39.23,1.73.24,2.25a22.87,22.87,0,0,1-.39,4.74,27.77,27.77,0,0,1-3.37,9,.56.56,0,0,0,1,.57c2.62-4.05,8.07-7,12.95-5.33,5.34,1.83,5.55,9.2,3.7,13.53-3.8,8.86-15.84,9.86-21.47,2.2-.43-.58-1.41,0-1,.57,6.69,9.1,21.06,6.91,24.14-4.15,1.27-4.57.27-11.18-4.72-13.1C236.17,176.16,230,179.36,227,184l1,.57a28.32,28.32,0,0,0,3.78-11.4c.2-1.92.82-6.45-1.66-7.48s-6.35,3.49-7.8,4.92a47.89,47.89,0,0,0-7.47,9.6.57.57,0,0,0,1,.58Z" transform="translate(-0.68)"/><path class="cls-1" d="M257.92,192a1.49,1.49,0,0,1-1.49-1.46,1.58,1.58,0,0,1,1.47-1.67,33.59,33.59,0,0,0,6.69-1.21,1.74,1.74,0,0,1,.45-.06,1.54,1.54,0,0,1,1.51,1.36,1.52,1.52,0,0,1-1.11,1.71,36.44,36.44,0,0,1-7.39,1.32Z" transform="translate(-0.68)"/><path class="cls-1" d="M258,191a35.92,35.92,0,0,0,7.19-1.29.57.57,0,0,0-.3-1.09,33.67,33.67,0,0,1-6.89,1.24c-.73.06-.73,1.19,0,1.14Z" transform="translate(-0.68)"/><path class="cls-1" d="M263,200.83a5.8,5.8,0,0,1-3.25-1c-3.57-2.39-3.58-7-3.26-9.58.52-4.3,2.67-6.91,5.75-7h.13a4.1,4.1,0,0,1,3.17,1.39,6.15,6.15,0,0,1,1.27,4.77,1.62,1.62,0,0,1-1.63,1.42h0a1.52,1.52,0,0,1-1.15-.5,1.44,1.44,0,0,1-.34-1.16,2.61,2.61,0,0,0-.58-2,1.56,1.56,0,0,0-1.14-.57,2.06,2.06,0,0,0-1.54,1.07,8,8,0,0,0-.93,3.92,7.34,7.34,0,0,0,.9,4.48,3.53,3.53,0,0,0,2.73,1.65,2.2,2.2,0,0,0,1.87-1.1,1.53,1.53,0,0,1,1.3-.7,1.61,1.61,0,0,1,1.43.85,1.48,1.48,0,0,1-.09,1.54A5.56,5.56,0,0,1,263,200.83Z" transform="translate(-0.68)"/><path class="cls-1" d="M265.85,189.28c.3-2.38-.76-5.11-3.55-5-3.2.09-4.46,3.47-4.78,6.11-.38,3.05,0,6.76,2.82,8.63a4.58,4.58,0,0,0,6.51-1.24c.41-.61-.57-1.18-1-.57-1.73,2.56-4.83,1.6-6.26-.55a8.43,8.43,0,0,1-1.07-5.09,9.21,9.21,0,0,1,1.1-4.43c2.14-3.18,5.45-.8,5.08,2.18-.09.72,1,.72,1.13,0Z" transform="translate(-0.68)"/><path class="cls-1" d="M251.11,200.82a1.6,1.6,0,0,1-1.13-.46,1.48,1.48,0,0,1-.43-1.1,57.5,57.5,0,0,0-2.29-16.8,1.53,1.53,0,0,1,.23-1.35,1.64,1.64,0,0,1,1.3-.63,1.52,1.52,0,0,1,1.48,1.12,60.8,60.8,0,0,1,2.41,17.68A1.53,1.53,0,0,1,251.11,200.82Z" transform="translate(-0.68)"/><path class="cls-1" d="M248.22,182.18a58.46,58.46,0,0,1,2.33,17.09.57.57,0,0,0,1.13,0,59.49,59.49,0,0,0-2.37-17.39.57.57,0,0,0-1.09.3Z" transform="translate(-0.68)"/><path class="cls-1" d="M250.22,189.51a1.62,1.62,0,0,1-1.3-.64,1.49,1.49,0,0,1-.2-1.36c1.08-3.39,4.14-5.41,9.07-6h.2a1.44,1.44,0,0,1,1.46,1.4,1.61,1.61,0,0,1-1.41,1.72c-3.58.43-5.65,1.68-6.33,3.8a1.54,1.54,0,0,1-1.49,1.09Z" transform="translate(-0.68)"/><path class="cls-1" d="M250.76,188.12c1-3.11,4.22-4.13,7.15-4.49.72-.08.73-1.22,0-1.13-3.47.42-7.08,1.68-8.24,5.32-.22.69.87,1,1.09.3Z" transform="translate(-0.68)"/><path class="cls-1" d="M283.75,200.88a1.56,1.56,0,0,1-1.59-1.49,304.86,304.86,0,0,0-3.52-33.67,1.58,1.58,0,0,1,.35-1.29,1.69,1.69,0,0,1,1.26-.58,1.45,1.45,0,0,1,1.45,1.25,307.94,307.94,0,0,1,3.59,34.19,1.5,1.5,0,0,1-.41,1.12,1.57,1.57,0,0,1-1.13.47Z" transform="translate(-0.68)"/><path class="cls-1" d="M279.63,165.56a301.42,301.42,0,0,1,3.52,33.78c0,.72,1.17.73,1.14,0a306.82,306.82,0,0,0-3.57-34.08c-.12-.72-1.21-.41-1.09.3Z" transform="translate(-0.68)"/><path class="cls-1" d="M293.45,201.46a1.55,1.55,0,0,1-1.59-1.51c0-.62,0-1.3,0-2a15.13,15.13,0,0,0-.41-4.89,2.35,2.35,0,0,0-2.36-1.72,4.54,4.54,0,0,0-3.81,2.31,1.49,1.49,0,0,1-1.33.83,1.62,1.62,0,0,1-1.46-2.27,60.77,60.77,0,0,0,3.82-11.54,1.5,1.5,0,0,1,1.48-1.18,1.61,1.61,0,0,1,1.27.61,1.53,1.53,0,0,1,.3,1.31,66.34,66.34,0,0,1-2,7,7.49,7.49,0,0,1,2.08-.31,5.78,5.78,0,0,1,2.39.49c3.42,1.51,3.28,6.12,3.18,9.49,0,.68,0,1.31,0,1.83a1.48,1.48,0,0,1-.41,1.11A1.57,1.57,0,0,1,293.45,201.46Z" transform="translate(-0.68)"/><path class="cls-1" d="M287.3,180.9a63.75,63.75,0,0,1-3.88,11.73c-.29.65.64,1.23,1,.57,1.54-3,6.66-4.33,8-.46.73,2.09.38,5,.45,7.17,0,.73,1.16.73,1.13,0-.09-2.9.9-8.92-2.55-10.44-2.83-1.25-6.69.59-8,3.16l1,.57a65,65,0,0,0,4-12c.16-.71-.93-1-1.09-.3Z" transform="translate(-0.68)"/><path class="cls-1" d="M274.18,201.43a7.67,7.67,0,0,1-6.23-3.38,5.53,5.53,0,0,1-.43-5.42,6.59,6.59,0,0,1,6-3.46,6.16,6.16,0,0,1,2.45.49c.18.09.35.17.52.27-.3-1.81-.64-3.15-1.83-3.92a2.86,2.86,0,0,0-1.54-.47,3.68,3.68,0,0,0-2.56,1.22,1.52,1.52,0,0,1-1.1.48h0a1.6,1.6,0,0,1-1.46-1,1.53,1.53,0,0,1,.32-1.67,6.75,6.75,0,0,1,4.82-2.14,6,6,0,0,1,4.32,1.86c3,3.11,2.66,8.66,2.41,12.72,0,.45,0,.88-.07,1.28a1.58,1.58,0,0,1-1.48,1.5l0,0A5.76,5.76,0,0,1,274.18,201.43Zm-.8-9.11a3.43,3.43,0,0,0-2.43,1,2.2,2.2,0,0,0-.56,2.56,4.41,4.41,0,0,0,3.77,2.43h0a2.62,2.62,0,0,0,1.91-.75,1.51,1.51,0,0,1,.56-.35,6.57,6.57,0,0,0-.8-3.63A2.92,2.92,0,0,0,273.38,192.32Z" transform="translate(-0.68)"/><path class="cls-1" d="M269.81,186.07a4.15,4.15,0,0,1,5.36-.9c1.71,1.1,2,3.09,2.32,4.91a39.15,39.15,0,0,1,.14,8.17h1.14c0-2.79-.28-6.35-3.24-7.67-2.39-1.06-6,0-7.09,2.46-2.32,5.14,5.32,9.75,9.13,6.06.52-.51-.28-1.31-.8-.8-3.37,3.27-10.17-1.91-6.54-5.66a4.18,4.18,0,0,1,6.42.39c1,1.49,1,3.49,1,5.22a.57.57,0,0,0,1.14,0c.2-3.89,1-10.13-2.06-13.25a5.24,5.24,0,0,0-7.7.27c-.51.53.29,1.33.8.8Z" transform="translate(-0.68)"/><path class="cls-1" d="M300.65,201.5a1.45,1.45,0,0,1-1.36-.87l-.45-1a1.6,1.6,0,0,1,.1-1.49c-.73-7.57-1.17-15.11-1.31-22.41-.08-4.05.17-8.52,2.64-11a6.19,6.19,0,0,1,4.63-1.82h.18a1.55,1.55,0,0,1,1.53,1.59,1.51,1.51,0,0,1-1.53,1.54h-.15a3.32,3.32,0,0,0-2.6,1.05c-2.33,2.51-1.82,9-1.52,12.88.06.84.12,1.59.15,2.19.24,5.73.67,11.69,1.29,17.72a1.48,1.48,0,0,1-.37,1.13A1.68,1.68,0,0,1,300.65,201.5Z" transform="translate(-0.68)"/><path class="cls-1" d="M305.06,163.87c-6.32-.14-6.52,7.25-6.43,11.82.15,8.1.67,16.19,1.49,24.25l1.06-.29-.45-1c-.29-.66-1.27-.09-1,.57l.45,1a.57.57,0,0,0,1.05-.29q-.9-8.87-1.29-17.77c-.2-4.59-2.29-17.33,5.1-17.17a.57.57,0,0,0,0-1.13Z" transform="translate(-0.68)"/><path class="cls-1" d="M302.83,194.22a43.31,43.31,0,0,1-6.27-.47,1.46,1.46,0,0,1-1.26-1.56,1.65,1.65,0,0,1,1.62-1.53H297l.17,0a38.66,38.66,0,0,0,5.63.41h.64a1.53,1.53,0,0,1,1.57,1.55,1.56,1.56,0,0,1-1.54,1.59Z" transform="translate(-0.68)"/><path class="cls-1" d="M296.71,192.76a42.26,42.26,0,0,0,6.74.46.57.57,0,0,0,0-1.14,38.57,38.57,0,0,1-6.44-.41c-.71-.11-1,1-.3,1.09Z" transform="translate(-0.68)"/><path class="cls-1" d="M312.43,202.17a7.68,7.68,0,0,1-6.23-3.38,5.5,5.5,0,0,1-.42-5.42,6.57,6.57,0,0,1,6-3.46,6,6,0,0,1,2.45.5,5,5,0,0,1,.52.26c-.3-1.81-.64-3.15-1.83-3.92a2.86,2.86,0,0,0-1.54-.47,3.68,3.68,0,0,0-2.56,1.22,1.52,1.52,0,0,1-1.1.48h0a1.61,1.61,0,0,1-1.46-1,1.56,1.56,0,0,1,.31-1.68,6.79,6.79,0,0,1,4.83-2.14,6,6,0,0,1,4.32,1.86c3,3.11,2.66,8.66,2.41,12.72,0,.45,0,.88-.07,1.28a1.58,1.58,0,0,1-1.48,1.5l0,0A5.8,5.8,0,0,1,312.43,202.17Zm-.8-9.11a3.43,3.43,0,0,0-2.43,1,2.2,2.2,0,0,0-.56,2.56,4.41,4.41,0,0,0,3.77,2.43h0a2.62,2.62,0,0,0,1.91-.75,1.51,1.51,0,0,1,.56-.35,6.48,6.48,0,0,0-.8-3.63A2.92,2.92,0,0,0,311.63,193.06Z" transform="translate(-0.68)"/><path class="cls-1" d="M308.06,186.81a4.15,4.15,0,0,1,5.36-.9c1.71,1.1,2,3.09,2.32,4.91a39.15,39.15,0,0,1,.14,8.17H317c0-2.79-.28-6.35-3.24-7.67-2.39-1.06-6,0-7.09,2.47-2.32,5.13,5.32,9.74,9.13,6.05.52-.51-.28-1.31-.8-.8-3.37,3.27-10.17-1.91-6.54-5.66a4.18,4.18,0,0,1,6.42.39c1,1.49,1,3.49,1,5.22a.57.57,0,0,0,1.14,0c.2-3.89,1-10.13-2.06-13.25a5.24,5.24,0,0,0-7.7.27c-.51.53.29,1.33.8.8Z" transform="translate(-0.68)"/><path class="cls-1" d="M327.54,202.48a5.57,5.57,0,0,1-1.08-.1c-3.53-.62-4.8-3.64-5.45-5.87a1.49,1.49,0,0,1,.23-1.34,1.62,1.62,0,0,1,1.29-.64,1.52,1.52,0,0,1,1.49,1.12c.55,1.89,2.06,3.84,3.62,3.84a2.81,2.81,0,0,0,1.87-.87,2.56,2.56,0,0,0,.94-2.24,5,5,0,0,0-2.56-3.43c-.49-.29-1-.53-1.56-.79-1.85-.87-3.94-1.86-4.64-4.49-.63-2.37.35-5.47,3-6.35a4.25,4.25,0,0,1,1.33-.21c2.58,0,5.05,2.28,6.37,3.51a1.47,1.47,0,0,1,.4,1.66,1.65,1.65,0,0,1-1.5,1h0a1.54,1.54,0,0,1-1.05-.42l-.27-.25a8.29,8.29,0,0,0-2.78-2,3.69,3.69,0,0,0-.93-.14,1.39,1.39,0,0,0-1.41.86,2.78,2.78,0,0,0,.64,2.8,8,8,0,0,0,2.63,1.51A11.32,11.32,0,0,1,331,191.3a6.33,6.33,0,0,1,2.15,7.27A6,6,0,0,1,327.54,202.48Z" transform="translate(-0.68)"/><path class="cls-1" d="M331.72,185.35c-1.63-1.51-4.28-3.88-6.71-3.08-2.08.69-2.87,3.19-2.35,5.15.76,2.85,3.48,3.37,5.73,4.66,2.53,1.46,4.45,4.86,1.79,7.28-3.24,2.95-6.26-.48-7.12-3.43a.57.57,0,0,0-1.09.3c.72,2.46,1.92,4.68,4.66,5.17a5,5,0,0,0,5.62-3.18,5.37,5.37,0,0,0-1.85-6.15c-1.66-1.4-4.09-1.66-5.61-3.19-2-2-1.33-6.28,2.67-5.19a9.83,9.83,0,0,1,3.46,2.46c.54.49,1.34-.3.8-.8Z" transform="translate(-0.68)"/><path class="cls-1" d="M337.86,201.6a1.56,1.56,0,0,1-1.59-1.49c-.64-11.26-1.52-22.66-2.62-33.9a1.51,1.51,0,0,1,.36-1.15,1.54,1.54,0,0,1,1.14-.49,1.6,1.6,0,0,1,1.62,1.44c1.1,11.27,2,22.7,2.62,34a1.48,1.48,0,0,1-.39,1.13,1.58,1.58,0,0,1-1.14.47Z" transform="translate(-0.68)"/><path class="cls-1" d="M334.64,166.11q1.67,16.95,2.62,33.95c.05.72,1.18.73,1.14,0q-1-17-2.62-33.95c-.07-.72-1.21-.72-1.14,0Z" transform="translate(-0.68)"/><path class="cls-1" d="M333.77,191.86a1.49,1.49,0,0,1-1.51-1.5,1.55,1.55,0,0,1,1.5-1.63l7-.34a1.52,1.52,0,0,1,1.59,1.5,1.55,1.55,0,0,1-1.5,1.63Z" transform="translate(-0.68)"/><path class="cls-1" d="M333.81,190.86l7-.33c.72,0,.72-1.17,0-1.14l-7,.34c-.73,0-.73,1.16,0,1.13Z" transform="translate(-0.68)"/><path class="cls-1" d="M19.8,140.92l-1.52-5c-.22-.67-1.1-3.23-2.66-7.67L7.83,106,.68,86.13c2.76.06,5,.08,6.86.08,1.12,0,3.09,0,5.9-.08l1.24,4.46q.4,1.36,1.17,3.69l9.75,29.43q.88,2.85,2.29,7.5l2.17-4.89c.53-1.21,1.64-3.56,3.32-7.07L46,92.84c.38-.78.75-1.6,1.12-2.47s1-2.28,1.77-4.24c2.91.06,5.13.08,6.66.08.91,0,3,0,6.29-.08L58.4,92.56,36.46,135.91l-2.33,5c-3.48,0-5.8-.08-7-.08S23.66,140.87,19.8,140.92Z" transform="translate(-0.68)"/><path class="cls-1" d="M62.42,140.92l1.16-19.06.32-11.08q.08-3.41.08-6.86c0-.41,0-1.68-.08-3.82,2.49.06,4.32.08,5.5.08,1.36,0,3.17,0,5.42-.08l-.2,5.66a23.47,23.47,0,0,1,2.61-3.23,11.18,11.18,0,0,1,2.43-1.82,11.5,11.5,0,0,1,3-1.17,14.06,14.06,0,0,1,6.66,0q0,3.73.36,9.47a16.9,16.9,0,0,0-4.29-.64,11.36,11.36,0,0,0-4.12.7,9.39,9.39,0,0,0-3.21,2.13,11.55,11.55,0,0,0-2.35,3.51,16,16,0,0,0-1.12,4.38q-.31,2.09-.53,7.14c-.15,3.38-.22,6.69-.22,10,0,1.26,0,2.84.12,4.73-2,0-3.9-.08-5.58-.08S64.72,140.87,62.42,140.92Z" transform="translate(-0.68)"/><path class="cls-1" d="M123.06,100.42l2.88-4.81c1.25,0,2.81.08,4.68.08,1.47,0,3,0,4.65-.08l-4.66,7.86a26.72,26.72,0,0,1,2.49,2.1,15.51,15.51,0,0,1,1.84,2.22,15.34,15.34,0,0,1,1.58,3,21,21,0,0,1,1.11,4,26.9,26.9,0,0,1,.41,4.77,24.58,24.58,0,0,1-1.52,8.72,20.3,20.3,0,0,1-4.51,7.07,21.46,21.46,0,0,1-7.21,4.79,22,22,0,0,1-8.44,1.74,21.36,21.36,0,0,1-3.52-.3c-1.2-.2-2.62-.52-4.25-.94l-2.87,4.85c-2.46-.05-4-.08-4.77-.08l-4.82.08,4.7-7.86A18.23,18.23,0,0,1,95,130.27a22.18,22.18,0,0,1-1.71-8.57,27.11,27.11,0,0,1,1.56-9.26,17.36,17.36,0,0,1,4.85-7.23,23.16,23.16,0,0,1,7.76-4.49,25.16,25.16,0,0,1,8.29-1.58,18.88,18.88,0,0,1,3.4.32C120.25,99.67,121.57,100,123.06,100.42Zm-4.22,7.07a13.44,13.44,0,0,0-2.69-.28,10.46,10.46,0,0,0-6.39,1.9,11.08,11.08,0,0,0-3.83,5.12,19.33,19.33,0,0,0-1.25,7,15.19,15.19,0,0,0,1.61,7.25Zm6.41,5-12.33,20.81a12.7,12.7,0,0,0,2.41.24,11,11,0,0,0,5.81-1.56,10.26,10.26,0,0,0,4-4.94,19.38,19.38,0,0,0,1.45-7.71,20.35,20.35,0,0,0-.2-2.88,15.17,15.17,0,0,0-.44-2.16A14.1,14.1,0,0,0,125.25,112.53Z" transform="translate(-0.68)"/><path class="cls-1" d="M147.83,149.39a51.3,51.3,0,0,0,15.66,3,17.62,17.62,0,0,0,4.77-.62,10.71,10.71,0,0,0,3.78-1.8,7.71,7.71,0,0,0,2.36-3.2,16.55,16.55,0,0,0,1.13-4.69q.27-2.66.44-8.07a25.14,25.14,0,0,1-2.81,3.31,14,14,0,0,1-3,2.13A17.44,17.44,0,0,1,166.1,141a20.61,20.61,0,0,1-4.9.58,20.08,20.08,0,0,1-6.7-1.11,15.1,15.1,0,0,1-9.4-9.43,22.2,22.2,0,0,1-1.28-7.49A26.72,26.72,0,0,1,145.93,113a20.22,20.22,0,0,1,6.18-8.19,23.66,23.66,0,0,1,8.71-4.42,41.05,41.05,0,0,1,10.29-1.2q3.13,0,7.11.38t10.51,1.55l-.92,12.71L187,129.71l-.32,14.4a29.72,29.72,0,0,1-.6,4.71,14.25,14.25,0,0,1-1.52,4.09,12.64,12.64,0,0,1-2.65,3.23,13.55,13.55,0,0,1-3.63,2.27,24.84,24.84,0,0,1-5,1.42,34.27,34.27,0,0,1-6.4.56,81.82,81.82,0,0,1-8.31-.48,76.6,76.6,0,0,1-10.16-1.81Zm29.31-41.26a32.16,32.16,0,0,0-6.47-.72,17.47,17.47,0,0,0-8.63,1.91,12.84,12.84,0,0,0-5.26,5.57,17,17,0,0,0-1.84,7.75,13.91,13.91,0,0,0,1.12,5.61,8,8,0,0,0,3.51,3.92,10.67,10.67,0,0,0,5.28,1.33,11.21,11.21,0,0,0,3.84-.64,9.56,9.56,0,0,0,3.23-2,13.52,13.52,0,0,0,2.55-3.3,14.16,14.16,0,0,0,1.56-4.44,52.66,52.66,0,0,0,.71-6.19Q177,113.24,177.14,108.13Z" transform="translate(-0.68)"/><path class="cls-1" d="M238.19,140.92c-2.36,0-4.16-.08-5.42-.08-1.58,0-3.37,0-5.38.08l.07-6.66a31.12,31.12,0,0,1-2,2.71,11.8,11.8,0,0,1-2.2,2,12,12,0,0,1-3,1.56,23.72,23.72,0,0,1-3.67,1,24.69,24.69,0,0,1-4.4.38,21.35,21.35,0,0,1-7.82-1.31,11.63,11.63,0,0,1-5.28-4q-2-2.65-2-7.59v-.84l.65-10.36.61-13.64c0-1.1,0-2.46,0-4.1,2.54.06,4.53.08,6,.08s3.36,0,5.53-.08l-1.34,18.31c-.08,1.42-.14,2.61-.18,3.59s-.06,1.68-.06,2.11a11.73,11.73,0,0,0,.86,4.79,5.9,5.9,0,0,0,3,2.91,10.69,10.69,0,0,0,4.59,1,11.17,11.17,0,0,0,4.41-.89,9.33,9.33,0,0,0,3.23-2.24,11.87,11.87,0,0,0,2.27-3.9,20.84,20.84,0,0,0,1-4.89c.19-1.48.36-4,.52-7.59q.33-6.51.46-13.21c2.65.06,4.67.08,6.07.08,1.58,0,3.36,0,5.34-.08q-.48,5.75-1,14.35t-.72,14.21Q238.32,134.27,238.19,140.92Z" transform="translate(-0.68)"/><path class="cls-1" d="M248.22,140.92q.56-6.81,1.18-20.39T250,100.1c2.27.06,4.12.08,5.53.08,1.63,0,3.4,0,5.3-.08l-.31,6.47a28.65,28.65,0,0,1,2.35-3.07,11.83,11.83,0,0,1,2.75-2.19,15,15,0,0,1,4-1.59,18.69,18.69,0,0,1,4.68-.58,17.36,17.36,0,0,1,3.49.34,14.93,14.93,0,0,1,3.07,1,10.8,10.8,0,0,1,2.37,1.43,8.74,8.74,0,0,1,1.66,1.79,15.89,15.89,0,0,1,1.49,2.91c.59-.94,1.13-1.72,1.62-2.35a13.29,13.29,0,0,1,4.76-3.64,16.65,16.65,0,0,1,3.43-1.06,20.43,20.43,0,0,1,3.95-.38,18.84,18.84,0,0,1,6.58,1.14,9.75,9.75,0,0,1,6.63,9.74c0,1.28-.1,3.17-.28,5.66s-.41,6.55-.68,12.18-.41,10-.43,13.06c-2,0-3.69-.08-5.19-.08-1.77,0-3.84,0-6.23.08q.36-5.17.69-10.83l.48-9.19q.19-3.5.2-5.9a8.41,8.41,0,0,0-.9-4.34,5.11,5.11,0,0,0-2.29-2.1,7.42,7.42,0,0,0-3.11-.63,7.61,7.61,0,0,0-3.28.69,8,8,0,0,0-2.73,2.21,11.2,11.2,0,0,0-1.94,3.57,25.42,25.42,0,0,0-1,5.71c-.21,2.45-.39,5.67-.52,9.66l-.27,11.15c-2.23,0-4.08-.08-5.55-.08s-3.44,0-5.91.08q.28-3.09.8-12.64t.52-12.88a13.38,13.38,0,0,0-.28-3,6,6,0,0,0-1.14-2.33,5.34,5.34,0,0,0-2-1.63,6.46,6.46,0,0,0-2.69-.52,7.3,7.3,0,0,0-4.93,1.85,10.54,10.54,0,0,0-3.11,4.93c-.65,2.07-1.13,6.07-1.42,12s-.44,10.68-.44,14.18c-2.46,0-4.31-.08-5.56-.08C252.69,140.84,250.73,140.87,248.22,140.92Z" transform="translate(-0.68)"/></svg>