<svg id="Layer_1" data-name="Layer 1" xmlns="http://www.w3.org/2000/svg" viewBox="0 0 399.98 336.64"><defs><style>.cls-1{fill:#d7522b;}.cls-2{fill:#ea5e2c;}.cls-3{fill:#678d3d;}.cls-4{fill:#f599a0;}.cls-5{fill:#79895c;}.cls-6{fill:#f15b61;}.cls-7{fill:#5c7b37;}.cls-8{fill:#f47d20;}.cls-9{fill:#fce600;}.cls-10{fill:#f38088;}.cls-11{fill:#e3af25;}.cls-12{fill:#e0d2a6;}.cls-13{fill:#cdaa74;}.cls-14{fill:#8a779d;}.cls-15{fill:#f7a9af;}.cls-16{fill:#f8c97b;}.cls-17{fill:#3f4e22;}</style></defs><title>vbb-color</title><path class="cls-1" d="M239.23,295.29c.19.33.31.57.45.79,1.28,2.11,7.92,4.62,10.26,3.88,3.72-1.19,4.49-.81,6,2.87,1.6,4,1.19,8,.19,12a37.53,37.53,0,0,0-1.38,11.45,6.82,6.82,0,0,1-3,6.17,30.71,30.71,0,0,1-7,3.77,6.93,6.93,0,0,1-5.25-.16c-3.65-1.41-7.28-2.92-11-4.08-4.45-1.39-5.52-5.16-4.76-9.05a16,16,0,0,1,1-3.23A87.42,87.42,0,0,0,228.52,309C230.21,303.07,234.09,298.82,239.23,295.29Z" transform="translate(-0.02)"/><path class="cls-2" d="M207.15,303.3a55.34,55.34,0,0,0,.22-9,7.87,7.87,0,0,1,.91-3.66,26.62,26.62,0,0,0,2.38-7.15c.6-4.31,3.23-7.55,6-10.34a12.37,12.37,0,0,1,9.61-3.75,4.93,4.93,0,0,1,4.38,3,11.11,11.11,0,0,0,4.7,5c2.94,1.79,4.68,4.69,6.38,7.57.26.44.44.87-.18,1.14-2.78,1.21-2.38,3.57-2,5.83a1.71,1.71,0,0,1-.87,2.11,25.68,25.68,0,0,0-12.09,16.47c-.41,1.77-1.18,2.33-3,2-3.79-.69-7.67-1-11.31-2.39C208.8,308.81,207.05,306.45,207.15,303.3Z" transform="translate(-0.02)"/><path class="cls-2" d="M259,248.41c6.94,5.43,13.07,11.19,15.44,19.86a32.77,32.77,0,0,1,1,4.47,11.12,11.12,0,0,1-3.92,10.58,30.17,30.17,0,0,1-12,6.23c-.38.1-1,.4-1,0-.22-1.67-2.3-2.22-2.25-4.1a2.26,2.26,0,0,0-2.23-2.19c-3-.4-5.75-2.73-9.07-1.54-.53.2-.83-.32-1.11-.67a19.92,19.92,0,0,1-4.9-13.21,6.53,6.53,0,0,1,3.67-6,62,62,0,0,1,6-2.69A17.29,17.29,0,0,0,259,248.41Z" transform="translate(-0.02)"/><path class="cls-3" d="M82.57,181.08C87,190.31,93.68,197.9,100.83,205a88.71,88.71,0,0,1,21,32.65,50.23,50.23,0,0,0,6.76,12.24,35.2,35.2,0,0,1-12.69-9.2c-.81-1-1.49-2.05-2.23-3.08-.38-.54-.51-1.62-1.52-1.06s-.08,1.26.08,1.87.49,1.47.82,2.39c-5.06-2.67-9.73-5.26-13.14-10-8.62-11.82-13.79-25-16.52-39.25a59.23,59.23,0,0,1-1.26-8.9A2.9,2.9,0,0,1,82.57,181.08Z" transform="translate(-0.02)"/><path class="cls-1" d="M256.85,294.43c1-3.26,3.74-3.71,6.29-4.63a28.25,28.25,0,0,0,10.23-6.36c3.32-3.23,3.91-7.33,3.29-11.66-.18-1.25.22-1.27,1.17-1.24,5.42.21,10.42,5.45,9.87,10.81a14.74,14.74,0,0,0,2.53,10.2,15.5,15.5,0,0,1,1.53,3,4.92,4.92,0,0,1-1.4,6,28.85,28.85,0,0,0-7.64,10.39c-1.56,3.55-4.22,3.61-7.74,2.93-.84-.16-.6-.75-.61-1.23a10.38,10.38,0,0,0-5.65-9.64,8.12,8.12,0,0,1-2.7-2.35A16.87,16.87,0,0,0,256.85,294.43Z" transform="translate(-0.02)"/><path class="cls-4" d="M331.75,66.82c-1.25,3.42.56,5.18,3.06,6.65,1.61,1,3.17,2,4.73,3,.47.31.92.68,1.34,0s-.16-1-.64-1.16c-1.45-.53-1.53-1.47-.91-2.68.15-.3.21-.63.34-.94.8-2,.9-4.38,3.1-5.6,4.19-2.35,8.5-4.69,13.39-2.61a7.57,7.57,0,0,0,8-1c1.2-.84,2.14-.72,2.71.59,1.23,2.83,2.2,5.75,1.58,8.9-.83,4.17-3.31,6.18-8.49,6.75-3.66.4-7.06,1.25-9.85,3.85a5.63,5.63,0,0,1-5.6,1.17,21.55,21.55,0,0,0-10.1-.35c-2.39.5-3.51-.34-4.28-2.75-.65-2-1.05-4.13-3.09-5.41a1.4,1.4,0,0,1-.08-2.28C328.71,71.07,330.56,69.3,331.75,66.82Z" transform="translate(-0.02)"/><path class="cls-3" d="M170.27,281.12c-6.25-2.82-12.62-3.34-18.82-4.71-5.38-1.18-10-4.16-14.5-7.36a66.75,66.75,0,0,1-20.5-24.19c-.18-.35-.35-.71-.5-1.08,0-.11,0-.24,0-.37s.29-.12.34-.08c6.58,6.26,14.73,9.66,23,12.84,7,2.67,13.86,5.52,20,9.95,3.81,2.78,7.26,5.84,8.74,10.59A30.63,30.63,0,0,0,170.27,281.12Z" transform="translate(-0.02)"/><path class="cls-5" d="M334,248.75c-2.82,1.42-5.55,2.88-8.36,4.18-6.38,3-12.93,5.37-20.08,5.6a4.18,4.18,0,0,1-1,0c-.42-.09-1.17.32-1.08-.64.07-.81.64-.68,1.17-.7,7.08-.19,13.61-2.45,20-5.34a66.07,66.07,0,0,0,8.64-4.56c-2.86,0-5.27-.12-7.83-1.37,6.07-3.71,11.36-8.3,18.32-9.82a2.24,2.24,0,0,0,1.52-.8c3.05-4.2,5.94-8.51,8.59-13-.77-.5-1.27.05-1.74.26a28.9,28.9,0,0,1-9.24,2.42c-.56,0-1.38.64-1.56-.52s.75-.81,1.3-.85c4.35-.31,8.25-2.07,12.18-3.71a3.48,3.48,0,0,0,1.58-1.76l3.54-6.49c1,.4,1.29,1,.6,1.93A4.51,4.51,0,0,0,360,217c.88,8.42-.3,16.5-4.46,24-.28.52-.64,1-1.15,1.75-1.64-4.4-2.55-8.6-2-13,.06-.47.6-1.11-.18-1.35-.54-.17-.61.57-.92.88-2.7,2.79-3.27,6.38-3.85,10-.95,5.85-2.9,11.52-3.21,17.49,0,.53-.19,1-.73,1-.81,0-.61-.74-.6-1.23.06-4.57,1.34-8.94,2.28-13.36a25.74,25.74,0,0,0,1.05-6.56c-1.19,1.5-2.1,2.6-3,3.74a95.19,95.19,0,0,1-7.86,9.59c-1.63,1.68-1.94,3.88-2.85,5.84-2.7,5.81-6.51,11-9.45,16.65-.57,1.09-1.14,2.19-2,3.81a32.72,32.72,0,0,1,1.31-12.39.81.81,0,0,0-1,.16C314.07,270.71,305.7,276,297,280.77c-2.62,1.42-5,3.28-7.55,5-.72-1-.23-1.52.56-2.07a106.66,106.66,0,0,1,12.4-7.68c6.36-3.23,11.82-7.74,17.2-12.35a146.7,146.7,0,0,0,13.71-13.49C333.59,249.79,334.14,249.53,334,248.75Z" transform="translate(-0.02)"/><path class="cls-2" d="M255.87,329.06a105.49,105.49,0,0,1,2.3-17.94,14.72,14.72,0,0,0-2.08-11c-.67-1.06-1.1-1.8-.1-2.84.32-.34.34-1,.53-1.54a15.24,15.24,0,0,1,7.89,5.11,16.08,16.08,0,0,0,4.34,3.78,8.78,8.78,0,0,1,.91,14.42,27,27,0,0,0-7,7.61C261.48,328.88,256,330.07,255.87,329.06Z" transform="translate(-0.02)"/><path class="cls-1" d="M248.3,251.69c-1,.58-1.85,1-2.65,1.49-6.92,4-9.16,8.73-8.08,16.65a23.13,23.13,0,0,0,5.1,12c.42.51,1.05,1.16.3,1.63s-.78-.59-1.05-1c-1.87-2.71-3.85-5.29-6.84-6.89a6.06,6.06,0,0,1-2.77-3.07c-1.68-4-5-5.25-9.83-4a17.39,17.39,0,0,0-5,2.38c-1.17.75-1.58.29-1.94-.81-1-3.17-.43-5,2.41-6.83a24.2,24.2,0,0,1,6.42-2.71,15.36,15.36,0,0,0,8.14-5.81c2.44-3.3,5.3-5.81,9.81-5.46A10.07,10.07,0,0,1,248.3,251.69Z" transform="translate(-0.02)"/><path class="cls-6" d="M334.08,63.63a34,34,0,0,1-5.62-4,1.54,1.54,0,0,1-.37-1.84,7.78,7.78,0,0,0,0-4.51c-.6-2.67.69-4.39,3.46-4.6a9.06,9.06,0,0,0,3.32-.61A3.11,3.11,0,0,0,336.94,45a5.45,5.45,0,0,1,5.51-6,11.51,11.51,0,0,1,4.82,1.08,11.79,11.79,0,0,0,6.44.93,2.56,2.56,0,0,1,3.11,1.82A9.72,9.72,0,0,0,359.55,47c2.1,1.65,4.46,1.54,6.89,1.23s3.12.07,3.56,2.52c.35,1.89.72,3.65,2.51,4.78.73.46.65,1.22.29,2a10.81,10.81,0,0,1-2.43,3.15c-1.15,1.09-2.26,2.49-3.68.23-.63-1-1.57-.41-2.32-.06-.93.44-1.81,1-3,1.65a30.59,30.59,0,0,0,1.22-7.55,4.52,4.52,0,0,0-2.26-4.39,23.71,23.71,0,0,1-5.05-4.21,6.55,6.55,0,0,0-5-2.07,15.27,15.27,0,0,0-7.5,1.82c-1.6.91-2.41,3-4.72,3-.58,0-.83,1-1.17,1.53C334.49,54.56,334.26,59,334.08,63.63Z" transform="translate(-0.02)"/><path class="cls-3" d="M378.36,193.79a70.26,70.26,0,0,1-15.71,15.79c-.74,0-.67-.4-.48-.88a85.52,85.52,0,0,0-.21-15,30.82,30.82,0,0,1,5.49-21.08,30.09,30.09,0,0,0,0,3.36,11.4,11.4,0,0,0,2.86,6.69c1,1,.87,1.72,0,2.67a17.4,17.4,0,0,1-3,2.91c-.34.23-.87.37-.43,1s.89.4,1.3.06c.87-.71,1.71-1.47,2.82-2.44a19.91,19.91,0,0,1-2.26,6.43c-.22.41-.47.81-.72,1.2s-.73,1,.06,1.48.81-.36,1-.69c1.72-2.47,2.62-5.29,3.7-8.17a21.63,21.63,0,0,1,.56,2.38c.06.6.26.85.84.8s.46-.52.48-.9c.07-1.3-.55-2.45-.84-3.83,3.57,1,6.14-.42,8.06-3.29C382.88,182.46,380.59,190.71,378.36,193.79Z" transform="translate(-0.02)"/><path class="cls-7" d="M370.33,182.66c1,1,.87,1.72,0,2.67a17.4,17.4,0,0,1-3,2.91c-.34.23-.87.37-.43,1s.89.4,1.3.06c.87-.71,1.71-1.47,2.82-2.44a19.91,19.91,0,0,1-2.26,6.43c-.22.41-.47.81-.72,1.2s-.73,1,.06,1.48.81-.36,1-.69c1.72-2.47,2.62-5.29,3.7-8.17a21.63,21.63,0,0,1,.56,2.38c.06.6.26.85.84.8s.46-.52.48-.9c.07-1.3-.55-2.45-.84-3.83C373.31,185.17,373.31,185.17,370.33,182.66Z" transform="translate(-0.02)"/><path class="cls-7" d="M156.57,278.73a58.67,58.67,0,0,1,9.32,2.19,22.7,22.7,0,0,1,9.07,5.26c2.33,2.3,5.17,3.93,8.44,5.85-9.32-.5-18.08-.87-26.45-3.88-4.67-1.67-8.8-4.41-13.06-6.88A60.25,60.25,0,0,0,132,275.66C132.16,274.74,148.8,277.52,156.57,278.73Z" transform="translate(-0.02)"/><path class="cls-8" d="M381.47,135.6a23.85,23.85,0,0,1-2.78,11.88,1.18,1.18,0,0,1-1.47.8c-1.75-.21-3.58-.42-5.1.9-.48.42-.62-.08-.85-.4a19.66,19.66,0,0,1-3.45-15.15,12.43,12.43,0,0,1,1.61-4.47c1.29-2.06,3.07-3.43,5.55-3.31a6.24,6.24,0,0,1,5.31,3.69A11.14,11.14,0,0,1,381.47,135.6Z" transform="translate(-0.02)"/><path class="cls-8" d="M379.55,148.89a35.71,35.71,0,0,1,4-6.11,21,21,0,0,1,6.07-4.81c2.63-1.34,5.19-1.64,7.65.33s3.1,4.78,2.46,7.75a9.19,9.19,0,0,1-5,6.58q-2.69,1.34-5.25,2.86a6.47,6.47,0,0,1-3.47.64.86.86,0,0,1-1-.77A9.8,9.8,0,0,0,379.55,148.89Z" transform="translate(-0.02)"/><path class="cls-9" d="M384,158.08c-.05,5.38-4.46,10.17-9.33,10.14-4.35,0-8-4.46-8-9.59a9.65,9.65,0,0,1,9.13-9.15A8.33,8.33,0,0,1,384,158.08Z" transform="translate(-0.02)"/><path class="cls-10" d="M353.37,61.41c1.85-2.6,2.58-5.26,1.62-8.23a6.15,6.15,0,0,0-10.41-2.38c-1.24,1.35-3.24,2.84-2.08,5s3.51,2.56,5.75,2.51c2.79,0,4-2.62,2.55-5-.27-.43-.46-1.06-1.18-.61-.54.34-.41.74-.12,1.18.49.74.94,1.52.19,2.35a2.49,2.49,0,0,1-2.59.58c-1.22-.29-2.77-.41-3.28-1.61s.78-2.29,1.55-3.23a5.4,5.4,0,0,1,6.05-1.28c1.53.66,2.77,3.27,2.6,5.48-.34,4.46-4,7-8.42,5.79-1.53-.43-3.09-.78-4.6-1.28-2-.65-2.62-1.82-2.13-3.84.73-3,2.23-5.67,3.44-8.47a2.29,2.29,0,0,1,.48-.64c2.44-2.52,9.38-2.68,11.8-.19a21.56,21.56,0,0,0,4.73,4,3.67,3.67,0,0,1,1.87,4.06c-.28,2-.25,4.13-1,6.09-.46,1.16-1.07,1.56-2.28,1A13.49,13.49,0,0,0,353.37,61.41Z" transform="translate(-0.02)"/><path class="cls-8" d="M357.66,173.12a20.48,20.48,0,0,1-2.36-.26c-5.22-1.26-7-5.54-4.37-10.24A10.08,10.08,0,0,1,364,158.44c.68.31,1.29.63,1.35,1.53A10.87,10.87,0,0,0,368.7,167c.5.5.49.85-.06,1.26C365.31,170.79,361.79,172.85,357.66,173.12Z" transform="translate(-0.02)"/><path class="cls-11" d="M247.06,282.68c2.31.68,4.73,1.38,7.14,2.1a.92.92,0,0,1,.66.91c0,1.31.85,2.13,1.64,3.07a2.52,2.52,0,0,1-.23,3.75,3.37,3.37,0,0,0-1.4,3.27c.18,1.26-.64,1.76-1.73,2-1.42.34-2.83.73-4.24,1.08-.25.07-.57.2-.77.11-2.32-1-4.63-2-6.91-3.05-.19-.09-.3-.62-.25-.91a14,14,0,0,0-.27-4.95,2.1,2.1,0,0,1,1.19-2.49,3.75,3.75,0,0,0,2.2-2.88C244.36,283.11,245.68,282.93,247.06,282.68Z" transform="translate(-0.02)"/><path class="cls-8" d="M365.28,157.44a26.74,26.74,0,0,0-4.8-1.41c-4.85-1.08-8.28-6.43-7.08-10.87,1-3.63,4.24-5.34,7.58-3.66s6.75,3.51,8.34,7.34c.38.91.62,1.4-.36,2.1C366.78,152.48,365.81,154.82,365.28,157.44Z" transform="translate(-0.02)"/><path class="cls-7" d="M112.14,242.14a10.15,10.15,0,0,1,3.47,4A59.77,59.77,0,0,0,122,256.29c-.94.53-1.58,0-2.2-.33a49.43,49.43,0,0,1-10.25-6.55c-6.65-5.35-12.78-11.35-19.88-16.15C90,233,105.63,237.64,112.14,242.14Z" transform="translate(-0.02)"/><path class="cls-8" d="M382.07,173.58c0,3,.06,5.28-1,7.39-1.95,4-5.8,4.65-9,1.63a11.58,11.58,0,0,1-2.3-12.93c.43-.89.8-1.13,1.81-.69a8,8,0,0,0,7.14-.38c.87-.46,1.18-.44,1.66.43C381.31,170.69,382.48,172.25,382.07,173.58Z" transform="translate(-0.02)"/><path class="cls-3" d="M205.94,298c-10.06-2.44-20.07-4.91-28.45-11.41-5.67-4.4-8.93-10.29-10.59-17.17a8.36,8.36,0,0,1,0-1.18,56.12,56.12,0,0,0,4.59,7.26c5,6.47,11.57,10.69,19.14,13.6a64,64,0,0,1,12.06,5.72A8,8,0,0,1,205.94,298Z" transform="translate(-0.02)"/><path class="cls-8" d="M381.32,167a12.48,12.48,0,0,0,3.91-7.42.91.91,0,0,1,.8-.94c5.54-1.2,11.17,4.27,10,9.75-1,4.5-4.45,6.23-8.58,4.22a15.48,15.48,0,0,1-4.34-3.51C382.5,168.41,381.94,167.68,381.32,167Z" transform="translate(-0.02)"/><path class="cls-1" d="M213.65,274.51c-4.89,5.34-4.31,12.58-7.79,18.12-2.44-3.74-3.23-7.83-1.22-12.22C206.34,276.71,209.48,275.17,213.65,274.51Z" transform="translate(-0.02)"/><path class="cls-12" d="M312.32,32.21a19.9,19.9,0,0,0-7.53,2.08c-.7.4-1.13-.08-1.6-.29-2.56-1.16-4.67-3-6.91-4.68,1.75-1.62,4.16-2.06,8.35-1.93C308.06,27.5,309.78,30.08,312.32,32.21Z" transform="translate(-0.02)"/><path class="cls-1" d="M257,249a13.59,13.59,0,0,1-6.65,7.79,33.71,33.71,0,0,1-4.73,2.07,27.94,27.94,0,0,0-6.48,3.63c1.55-4,3.35-6,7.63-8.35C250.12,252.28,253.66,250.87,257,249Z" transform="translate(-0.02)"/><path class="cls-13" d="M286.62,22.67c3.23-1.85,6.64-1.72,10-1.67.46,0,.93.7,1.36,1.1a28.74,28.74,0,0,0,4.51,3.41C296.57,28.47,291.54,26.36,286.62,22.67Z" transform="translate(-0.02)"/><path class="cls-12" d="M322.15,37.22a18.3,18.3,0,0,1-9.42-14.15,30.77,30.77,0,0,1,7.33,5.34c.14.14.36.28.37.44A40.55,40.55,0,0,0,322.15,37.22Z" transform="translate(-0.02)"/><path class="cls-12" d="M325.67,41.3a19.78,19.78,0,0,0-10.5,3,1.16,1.16,0,0,1-1.45,0c-1.27-.85-2.56-1.68-3.82-2.54-.57-.39-.93-.84,0-1.26,4.79-2.2,9.65-2,14.56-.46.17,0,.31.24.45.38S325.25,40.8,325.67,41.3Z" transform="translate(-0.02)"/><path class="cls-13" d="M319.28,37.43c-3.58-.06-6.87.24-9.91,1.79a1.13,1.13,0,0,1-1.29-.1c-1.33-.88-2.68-1.72-4.13-2.65A16.41,16.41,0,0,1,312,33.7C315.26,33.29,317.2,35.12,319.28,37.43Z" transform="translate(-0.02)"/><path class="cls-13" d="M326.86,40.31c-3.81-3.49-4.91-7.6-4.9-12.16,0-1.28.52-1.33,1.41-.67.64.48,1.29.94,1.9,1.46,1.56,1.33,2.8,2.72,2.05,5.09C326.72,35.94,326.94,38,326.86,40.31Z" transform="translate(-0.02)"/><path class="cls-12" d="M292,19.6c-2.36-.15-4.35,1.89-6.72,1.21a22,22,0,0,1-7.66-3.74C280.94,15.24,285.93,14.85,292,19.6Z" transform="translate(-0.02)"/><path class="cls-10" d="M345,63.41c-3.85,1.13-5.83,3.74-6.6,7.5-.93-3.61-3.38-6.77-2.66-10.95C338.81,61.15,341.59,62.7,345,63.41Z" transform="translate(-0.02)"/><path class="cls-12" d="M258.67,0a16.28,16.28,0,0,1,8.79,2.41,13.34,13.34,0,0,1,1.68,1.39,2,2,0,0,1,.74,2.13c-.26.62-1.18.18-1.8.18C264,6.16,260.7,4.74,258.9.8A6.17,6.17,0,0,1,258.67,0Z" transform="translate(-0.02)"/><path class="cls-13" d="M313.33,30.86c-3.22-1.81-7.38-6.75-9.2-11.08C309.87,21.35,312.51,25.36,313.33,30.86Z" transform="translate(-0.02)"/><path class="cls-14" d="M295.37,257.14a3.47,3.47,0,0,1,3.67-2.92,3,3,0,0,1,3,3.26,3.66,3.66,0,0,1-3.74,3.09A3.34,3.34,0,0,1,295.37,257.14Z" transform="translate(-0.02)"/><path class="cls-12" d="M294.82,15.29c4.77,2.14,8.73,4.91,10.51,9.83C302.06,24.6,295.78,18.91,294.82,15.29Z" transform="translate(-0.02)"/><path class="cls-14" d="M344.71,265.18a3,3,0,0,1-2.87-3c.07-1.22,1.63-3.31,2.47-3.29,1.51,0,3.5,1.9,3.47,3.27A3.11,3.11,0,0,1,344.71,265.18Z" transform="translate(-0.02)"/><path class="cls-13" d="M327.06,42.7c-2.45,4.11-7.71,4.49-10.5,3.77-.32-.08-.9,0-.86-.6s.48-.58.83-.77A18.81,18.81,0,0,1,327.06,42.7Z" transform="translate(-0.02)"/><path class="cls-13" d="M281.54,14.19c-3.44,1.91-6.41.94-9.25-1.13-.32-.24-.76-.37-.69-.86s.6-.4.95-.44c1.85-.24,3.71-.43,5.55-.7.36-.06.59-.09.85.21C279.8,12.27,280.68,13.24,281.54,14.19Z" transform="translate(-0.02)"/><path class="cls-13" d="M294.37,18.73C289.92,17.14,287,14,285,9.32,289.51,11.28,294.58,18.56,294.37,18.73Z" transform="translate(-0.02)"/><path class="cls-12" d="M329.34,30.77c3.46,3.52,4.21,6.7-.72,10.47A26.35,26.35,0,0,1,329.34,30.77Z" transform="translate(-0.02)"/><path class="cls-13" d="M335.51,45.14c.07.94-.59,1.33-1.21,1.71a1.25,1.25,0,0,1-1.77-.32,13.09,13.09,0,0,0-2.79-2.23c-.39-.26-1.29-.29-1-.92s1-1.7,1.69-1.46a15.37,15.37,0,0,1,4.8,2.33C335.44,44.41,335.43,44.86,335.51,45.14Z" transform="translate(-0.02)"/><path class="cls-12" d="M278.73,8.63c4.3.23,6.19,2.87,7.55,6.32C282.63,14.23,280.86,11.42,278.73,8.63Z" transform="translate(-0.02)"/><path class="cls-5" d="M307.08,282.36c-.15.79-.39,2-.63,3.26-.09.46-.18,1-.75,1s-.63-.61-.77-1c-.77-2.3-.39-4.73-.74-7.08-.07-.46.31-.77.71-.4C306,279.13,307.22,280.15,307.08,282.36Z" transform="translate(-0.02)"/><path class="cls-14" d="M339.9,224.57c-.17,1.3-.65,2.25-2.1,2.22s-2.28-.67-2.31-2.15.6-2.51,2-2.49A2.48,2.48,0,0,1,339.9,224.57Z" transform="translate(-0.02)"/><path class="cls-12" d="M264.87,7.16c3.23.52,6.35-.31,8.18,2.77C270.05,11.13,268.57,10.68,264.87,7.16Z" transform="translate(-0.02)"/><path class="cls-15" d="M334.5,67.48c1.37-.17,1.52.92,1.74,1.88s1.41,2.57.43,3.21-1.91-1-2.89-1.62c-1.41-.86-.84-2-.46-3.15C333.53,67.18,334,67.26,334.5,67.48Z" transform="translate(-0.02)"/><path class="cls-13" d="M277.66,9.57c-2.69.64-5.34-1.4-6.45-5.08C273.71,6,276.45,6.73,277.66,9.57Z" transform="translate(-0.02)"/><path class="cls-15" d="M337.36,59.05c-1.33-.36-1.73-1.12-1.46-2,.73-2.56,1.32-5.23,3.69-7C339.06,53.1,336.91,55.68,337.36,59.05Z" transform="translate(-0.02)"/><path class="cls-16" d="M333,225.44c-.8-.6-2.21-.44-2.32-1.79,0-.39.59-.65.95-.42,1,.63,2.72.33,2.63,2.35a2.94,2.94,0,0,1-1.24,2.31.76.76,0,0,1-.7-.16C331.68,226.8,332.79,226.35,333,225.44Z" transform="translate(-0.02)"/><path class="cls-16" d="M345.42,266.52c1.1-.28,1.35.76,1.91,1.33a.59.59,0,0,1-.13,1c-.35.23-.68.37-1-.06s-.81-1.52-1.34,0c-.12.35-1.11.23-1.15-.14-.08-.71-.22-1.63.7-2A3,3,0,0,1,345.42,266.52Z" transform="translate(-0.02)"/><path class="cls-5" d="M301.12,274.7a8.16,8.16,0,0,1-5.38-2.9A8.87,8.87,0,0,1,301.12,274.7Z" transform="translate(-0.02)"/><path class="cls-16" d="M293.69,256.48c-.58-.87-1.18-1.72-1.73-2.61-.15-.25-.43-.67-.09-.86s1-.19,1.08-.07c.48,1.13,2.29,1.92,1,3.54Z" transform="translate(-0.02)"/><path class="cls-16" d="M293.69,256.48h.25a1.9,1.9,0,0,1-.82,2.39c-.44.24-.75.42-1.17-.07s-.22-.78.2-1.1S293.18,256.89,293.69,256.48Z" transform="translate(-0.02)"/><path class="cls-3" d="M375.7,101c-3.13-8-10.39-12.07-16.36-18a34.09,34.09,0,0,1-.22,9.84,130,130,0,0,0-1.59,13.9,37.57,37.57,0,0,0,.88,10.15c1.22,5.18,5.21,8.18,9.22,11.12.71.53.89-.09,1.21-.47,2.52-3,5.58-3.84,9.41-2.32C378.81,116.89,378.76,108.79,375.7,101Zm-2.33,22.74a1.05,1.05,0,0,1-.66.63c-.67.11-.86-.5-1.11-1a82.26,82.26,0,0,0-5.38-8.42c-.43-.6-.87-1.18-1.33-1.75s-.55-.9.07-1.34.81.2,1,.5c1.44,2,2.85,4,4.27,6,.51.22.54,0,.45-.44a72.5,72.5,0,0,0-3.81-13.41c-.21-.55-1-1.3,0-1.7,1.08-.46,1.1.71,1.33,1.29a73.43,73.43,0,0,1,4.07,14.38,2.64,2.64,0,0,0,.61,1.69,31.08,31.08,0,0,0,1.07-9.67c0-.6-.61-1.64.65-1.71,1.08-.06.75,1,.79,1.5A38.64,38.64,0,0,1,373.37,123.75Z" transform="translate(-0.02)"/><path class="cls-7" d="M373.37,123.75a1.05,1.05,0,0,1-.66.63c-.67.11-.86-.5-1.11-1a82.26,82.26,0,0,0-5.38-8.42c-.43-.6-.87-1.18-1.33-1.75s-.55-.9.07-1.34.81.2,1,.5c1.44,2,2.85,4,4.27,6,.51.22.54,0,.45-.44a72.5,72.5,0,0,0-3.81-13.41c-.21-.55-1-1.3,0-1.7,1.08-.46,1.1.71,1.33,1.29a73.43,73.43,0,0,1,4.07,14.38,2.64,2.64,0,0,0,.61,1.69,31.08,31.08,0,0,0,1.07-9.67c0-.6-.61-1.64.65-1.71,1.08-.06.75,1,.79,1.5A38.64,38.64,0,0,1,373.37,123.75Z" transform="translate(-0.02)"/><path class="cls-17" d="M115.25,171.62q.85,6.84,1.57,13.68c.22,2.19.44,4.39.64,6.58.1,1.1.2,2.19.29,3.29,0,.21.4,4,1,3.4s-.3-1.33-.8-.8l-.11.11a.57.57,0,0,0,0,.8l.16.15a.57.57,0,0,0,.8,0c.71-.84.26-2.08.17-3.11-.23-2.74-.49-5.49-.76-8.23q-.78-7.94-1.78-15.87c-.09-.71-1.23-.72-1.14,0Z" transform="translate(-0.02)"/><path class="cls-17" d="M108.41,181.31a45.67,45.67,0,0,1,10.76-12.45l1.35-1,2.61.68c.34.39.23,1.73.24,2.25a24.21,24.21,0,0,1-.39,4.74,27.56,27.56,0,0,1-3.38,9,.57.57,0,0,0,1,.57c2.62-4.05,8.07-7,13-5.33,5.34,1.84,5.55,9.2,3.69,13.53-3.79,8.86-15.83,9.86-21.46,2.2-.43-.58-1.41,0-1,.58,6.69,9.09,21.06,6.9,24.14-4.16,1.27-4.57.27-11.18-4.72-13.1-5.45-2.09-11.63,1.11-14.6,5.71l1,.57a28.33,28.33,0,0,0,3.78-11.39c.2-1.93.82-6.46-1.67-7.48s-6.34,3.48-7.79,4.91a47.67,47.67,0,0,0-7.47,9.61.57.57,0,0,0,1,.57Z" transform="translate(-0.02)"/><path class="cls-17" d="M143.63,190a35.18,35.18,0,0,0,7.2-1.28.57.57,0,0,0-.3-1.09,34.33,34.33,0,0,1-6.9,1.24c-.72.06-.72,1.19,0,1.13Z" transform="translate(-0.02)"/><path class="cls-17" d="M151.51,188.29c.3-2.38-.76-5.11-3.55-5-3.2.08-4.46,3.46-4.78,6.11-.38,3,0,6.76,2.82,8.63a4.59,4.59,0,0,0,6.51-1.24c.4-.61-.58-1.18-1-.58-1.73,2.57-4.83,1.61-6.26-.54a8.43,8.43,0,0,1-1.07-5.09,9.09,9.09,0,0,1,1.1-4.43c2.13-3.18,5.45-.8,5.08,2.18-.09.72,1,.71,1.13,0Z" transform="translate(-0.02)"/><path class="cls-17" d="M166.48,185.64a5.43,5.43,0,0,0-7-.14c-2.65,2-3.71,6.26-3.44,9.42a5.83,5.83,0,0,0,5.24,5.32c3.09.31,5.67-1.79,6.84-4.49.29-.67-.69-1.24-1-.58a6.08,6.08,0,0,1-5,4,4.79,4.79,0,0,1-5-5.07c0-3.77,3.6-12.13,8.54-7.63.54.49,1.34-.31.8-.8Z" transform="translate(-0.02)"/><path class="cls-17" d="M165.25,169.64q.6,8.37,1.39,16.73c.41,4.41.09,9.79,1.88,13.88.29.67,1.26.09,1-.57-1.08-2.47-1-5.62-1.25-8.3-.24-2.41-.46-4.82-.68-7.24q-.66-7.24-1.19-14.5c0-.72-1.18-.73-1.13,0Z" transform="translate(-0.02)"/><path class="cls-17" d="M204,198.82c-7.25-2.76-13.9-8.14-15.65-16A16,16,0,0,1,190,171.07c.72-1.15,2-2.72,3.44-3.07a3.82,3.82,0,0,1,4.52,2.95c.73,2.77-1,5.48-2.66,7.55a49.69,49.69,0,0,0-5.88,8.83c-1.14,2.35-3,5.41-2.19,8.13,1.84,5.93,9.17,3.17,12.64.85.6-.4,0-1.38-.57-1-2,1.34-4.27,2.8-6.77,2.65-5.39-.31-4.35-5.33-2.77-8.73a43.74,43.74,0,0,1,3.3-6.1c1.32-2,3-3.62,4.34-5.6,1.62-2.46,2.63-5.73,1-8.45a4.61,4.61,0,0,0-6.15-1.82c-6.3,3.21-6.27,13.15-4.06,18.73,2.69,6.82,8.88,11.37,15.54,13.9.69.26,1-.84.3-1.09Z" transform="translate(-0.02)"/><path class="cls-17" d="M222.67,171.06q.86,6.84,1.56,13.68.35,3.28.64,6.58l.3,3.29c0,.21.39,4,1,3.4s-.3-1.33-.8-.8l-.11.11a.57.57,0,0,0,0,.8l.16.15a.57.57,0,0,0,.8,0c.72-.85.26-2.09.18-3.11-.24-2.75-.49-5.49-.77-8.23q-.78-8-1.78-15.87c-.09-.71-1.22-.72-1.13,0Z" transform="translate(-0.02)"/><path class="cls-17" d="M215.82,180.75a45.7,45.7,0,0,1,10.76-12.45l1.36-1,2.6.68c.35.39.23,1.73.24,2.25a22.87,22.87,0,0,1-.39,4.74,27.77,27.77,0,0,1-3.37,9,.56.56,0,0,0,1,.57c2.62-4.05,8.07-7,12.95-5.33,5.34,1.83,5.55,9.2,3.7,13.53-3.8,8.86-15.84,9.86-21.47,2.2-.43-.58-1.41,0-1,.57,6.69,9.1,21.06,6.91,24.14-4.15,1.27-4.57.27-11.18-4.72-13.1C236.17,176.16,230,179.36,227,184l1,.57a28.32,28.32,0,0,0,3.78-11.4c.2-1.92.82-6.45-1.66-7.48s-6.35,3.49-7.8,4.92a47.89,47.89,0,0,0-7.47,9.6.57.57,0,0,0,1,.58Z" transform="translate(-0.02)"/><path class="cls-17" d="M258,191a35.92,35.92,0,0,0,7.19-1.29.57.57,0,0,0-.3-1.09,33.67,33.67,0,0,1-6.89,1.24c-.73.06-.73,1.19,0,1.14Z" transform="translate(-0.02)"/><path class="cls-17" d="M265.85,189.28c.3-2.38-.76-5.11-3.55-5-3.2.09-4.46,3.47-4.78,6.11-.38,3.05,0,6.76,2.82,8.63a4.58,4.58,0,0,0,6.51-1.24c.41-.61-.57-1.18-1-.57-1.73,2.56-4.83,1.6-6.26-.55a8.43,8.43,0,0,1-1.07-5.09,9.21,9.21,0,0,1,1.1-4.43c2.14-3.18,5.45-.8,5.08,2.18-.09.72,1,.72,1.13,0Z" transform="translate(-0.02)"/><path class="cls-17" d="M248.22,182.18a58.46,58.46,0,0,1,2.33,17.09.57.57,0,0,0,1.13,0,59.49,59.49,0,0,0-2.37-17.39.57.57,0,0,0-1.09.3Z" transform="translate(-0.02)"/><path class="cls-17" d="M250.76,188.12c1-3.11,4.22-4.13,7.15-4.49.72-.08.73-1.22,0-1.13-3.47.42-7.08,1.68-8.24,5.32-.22.69.87,1,1.09.3Z" transform="translate(-0.02)"/><path class="cls-17" d="M279.63,165.56a301.42,301.42,0,0,1,3.52,33.78c0,.72,1.17.73,1.14,0a306.82,306.82,0,0,0-3.57-34.08c-.12-.72-1.21-.41-1.09.3Z" transform="translate(-0.02)"/><path class="cls-17" d="M287.3,180.9a63.75,63.75,0,0,1-3.88,11.73c-.29.65.64,1.23,1,.57,1.54-3,6.66-4.33,8-.46.73,2.09.38,5,.45,7.17,0,.73,1.16.73,1.13,0-.09-2.9.9-8.92-2.55-10.44-2.83-1.25-6.69.59-8,3.16l1,.57a65,65,0,0,0,4-12c.16-.71-.93-1-1.09-.3Z" transform="translate(-0.02)"/><path class="cls-17" d="M269.81,186.07a4.15,4.15,0,0,1,5.36-.9c1.71,1.1,2,3.09,2.32,4.91a39.15,39.15,0,0,1,.14,8.17h1.14c0-2.79-.28-6.35-3.24-7.67-2.39-1.06-6,0-7.09,2.46-2.32,5.14,5.32,9.75,9.13,6.06.52-.51-.28-1.31-.8-.8-3.37,3.27-10.17-1.91-6.54-5.66a4.18,4.18,0,0,1,6.42.39c1,1.49,1,3.49,1,5.22a.57.57,0,0,0,1.14,0c.2-3.89,1-10.13-2.06-13.25a5.24,5.24,0,0,0-7.7.27c-.51.53.29,1.33.8.8Z" transform="translate(-0.02)"/><path class="cls-17" d="M305.06,163.87c-6.32-.14-6.52,7.25-6.43,11.82.15,8.1.67,16.19,1.49,24.25l1.06-.29-.45-1c-.29-.66-1.27-.09-1,.57l.45,1a.57.57,0,0,0,1.05-.29q-.9-8.87-1.29-17.77c-.2-4.59-2.29-17.33,5.1-17.17a.57.57,0,0,0,0-1.13Z" transform="translate(-0.02)"/><path class="cls-17" d="M296.71,192.76a42.26,42.26,0,0,0,6.74.46.57.57,0,0,0,0-1.14,38.57,38.57,0,0,1-6.44-.41c-.71-.11-1,1-.3,1.09Z" transform="translate(-0.02)"/><path class="cls-17" d="M308.06,186.81a4.15,4.15,0,0,1,5.36-.9c1.71,1.1,2,3.09,2.32,4.91a39.15,39.15,0,0,1,.14,8.17H317c0-2.79-.28-6.35-3.24-7.67-2.39-1.06-6,0-7.09,2.47-2.32,5.13,5.32,9.74,9.13,6.05.52-.51-.28-1.31-.8-.8-3.37,3.27-10.17-1.91-6.54-5.66a4.18,4.18,0,0,1,6.42.39c1,1.49,1,3.49,1,5.22a.57.57,0,0,0,1.14,0c.2-3.89,1-10.13-2.06-13.25a5.24,5.24,0,0,0-7.7.27c-.51.53.29,1.33.8.8Z" transform="translate(-0.02)"/><path class="cls-17" d="M331.72,185.35c-1.63-1.51-4.28-3.88-6.71-3.08-2.08.69-2.87,3.19-2.35,5.15.76,2.85,3.48,3.37,5.73,4.66,2.53,1.46,4.45,4.86,1.79,7.28-3.24,2.95-6.26-.48-7.12-3.43a.57.57,0,0,0-1.09.3c.72,2.46,1.92,4.68,4.66,5.17a5,5,0,0,0,5.62-3.18,5.37,5.37,0,0,0-1.85-6.15c-1.66-1.4-4.09-1.66-5.61-3.19-2-2-1.33-6.28,2.67-5.19a9.83,9.83,0,0,1,3.46,2.46c.54.49,1.34-.3.8-.8Z" transform="translate(-0.02)"/><path class="cls-17" d="M334.64,166.11q1.67,16.95,2.62,33.95c.05.72,1.18.73,1.14,0q-1-17-2.62-33.95c-.07-.72-1.21-.72-1.14,0Z" transform="translate(-0.02)"/><path class="cls-17" d="M333.81,190.86l7-.33c.72,0,.72-1.17,0-1.14l-7,.34c-.73,0-.73,1.16,0,1.13Z" transform="translate(-0.02)"/><path class="cls-17" d="M18.81,140.36.05,77.73A.6.6,0,0,1,.62,77H12.2a.61.61,0,0,1,.58.44L25.53,122.9a.6.6,0,0,0,1.16,0L39.44,77.39A.61.61,0,0,1,40,77H51.67a.6.6,0,0,1,.58.78L33.41,140.36a.59.59,0,0,1-.57.43H19.38A.59.59,0,0,1,18.81,140.36Z" transform="translate(-0.02)"/><path class="cls-17" d="M62.12,140.19V95.47a.6.6,0,0,1,.6-.6H71.6a.6.6,0,0,1,.6.6v4.72l1.71-1.94.08-.08,2-1.51a.41.41,0,0,1,.11-.07l2.1-1,.1,0,2.3-.63.11,0,2.59-.23h2.15l1.64.14a.61.61,0,0,1,.55.6v9.86a.61.61,0,0,1-.65.6l-1.53-.11h-.07l-2.61.15h-.06l-2.53.37a.44.44,0,0,0-.15,0l-2,.86-.15.09-1.82,1.57L76,109l-1.5,2a.8.8,0,0,0-.08.16l-.92,2.54,0,.11-.41,2.53s0,.07,0,.1v23.82a.6.6,0,0,1-.6.6H62.72A.6.6,0,0,1,62.12,140.19Z" transform="translate(-0.02)"/><path class="cls-17" d="M93.78,137.92l3.72-4.37a.6.6,0,0,0,.06-.69l-1.62-2.8,0-.1-1.4-4a.43.43,0,0,1,0-.11l-.69-4.19v0l-.27-3.2v-.08l.19-3.61a.13.13,0,0,1,0-.06l.6-4.15,0-.1,1.32-4.15a.61.61,0,0,1,0-.12l2.35-4a.47.47,0,0,1,.06-.09l2.82-3.27a.5.5,0,0,1,.11-.1l3.35-2.33.09-.06,4-1.81.13,0,3.81-.79h.09l3.6-.23h.08l4.17.3.11,0,3.66,1,.09,0,3.1,1.43.07,0,1.32.83a.6.6,0,0,0,.77-.1l3.19-3.51a.61.61,0,0,1,.83-.05l4.36,3.62a.59.59,0,0,1,.07.85l-3.5,4a.61.61,0,0,0-.07.7l1.16,2a.25.25,0,0,0,0,.07l1.29,3.12a.14.14,0,0,0,0,.06l.83,2.84s0,0,0,.07l.57,3.38v.07l.16,3.16v.05l-.16,3.63v.06l-.57,3.7s0,0,0,.06l-1,3.6a.54.54,0,0,1-.05.11L135,131.76l0,.06-2,3.06-.09.1L130,137.65a.35.35,0,0,1-.09.07l-3.08,2-.1,0-3.39,1.39-.1,0-3.94.87h-.09l-3.1.19h-.07L113,142h-.09l-3.64-.8h-.07L105.59,140l-.12-.06-2.31-1.41a.61.61,0,0,0-.76.1L99,142.31a.6.6,0,0,1-.83.05l-4.29-3.58A.62.62,0,0,1,93.78,137.92Zm12.37-14.54L122,105.87a.6.6,0,0,0-.23-1l-2.62-1-.14,0-3.29-.44h-.17l-3,.44a.55.55,0,0,0-.18.06l-3,1.53a.49.49,0,0,0-.18.14l-2.35,2.71a.51.51,0,0,0-.09.16L105.17,112a.65.65,0,0,0,0,.13l-.68,4.1a.4.4,0,0,0,0,.11l.07,4.15a.59.59,0,0,0,0,.13l.57,2.46A.61.61,0,0,0,106.15,123.38Zm4.33,7.41,1.86,1a.7.7,0,0,0,.19.06l3.49.51a.67.67,0,0,0,.2,0l4-.78a.54.54,0,0,0,.21-.08l3-2a.61.61,0,0,0,.16-.16l2.29-3.32a.8.8,0,0,0,.08-.16l1.12-3.62s0-.07,0-.11l.41-3.66a.31.31,0,0,0,0-.1l-.19-3.58a.36.36,0,0,0,0-.1l-.53-2.3a.6.6,0,0,0-1-.26L110.3,129.86A.6.6,0,0,0,110.48,130.79Z" transform="translate(-0.02)"/><path class="cls-17" d="M154,142.69l2.73,1.3.08,0,3.65,1.11h.06l3.08.57h.06l3.68.3h.11l3.07-.3.11,0,2.53-.73.17-.08,2.17-1.49a.37.37,0,0,0,.13-.12l1.11-1.42a.65.65,0,0,0,.11-.22l.5-1.88s0-.07,0-.11l.18-2.56v-2.31L176,135.94l-.11.07-2.58,1.16-.08,0-2.58.71-.11,0-3.08.26h-.09l-3.64-.26-.15,0-4.09-1.35-.13-.06-3.56-2.21a.52.52,0,0,1-.11-.1l-2.85-2.92-.08-.1-2.26-3.58-.06-.11-1.55-4.16a.36.36,0,0,1,0-.1l-.57-3.09s0-.05,0-.08l-.19-4.19v-.07l.38-4.73s0-.06,0-.09l1.1-4.66a.65.65,0,0,1,0-.13l2-4.13.08-.13,2.85-3.37.12-.11,3.6-2.51.13-.07,4.63-1.73a.58.58,0,0,1,.14,0l4.62-.49H168l4.13.67.11,0,3.42,1.23a.56.56,0,0,1,.17.09l2.32,1.82a.61.61,0,0,0,1-.48v-1.5a.6.6,0,0,1,.6-.6h8.37a.6.6,0,0,1,.61.6V139.2l-.27,3a.29.29,0,0,1,0,.09l-.9,3.64a.58.58,0,0,1,0,.14l-1.9,3.5-.11.15-2.55,2.4a.6.6,0,0,1-.13.09l-3.08,1.61-.06,0-3.64,1.4-.11,0-4.17.68h-.07l-4.21.19h-.06l-4.2-.23h-.06l-4.17-.69h-.06l-4.72-1.34,0,0-4.23-1.56a.6.6,0,0,1-.35-.8L153.2,143A.59.59,0,0,1,154,142.69ZM177.63,112l-.47-2.52a.5.5,0,0,0-.08-.2l-1.1-1.81a.64.64,0,0,0-.1-.13l-1.47-1.4a.42.42,0,0,0-.14-.09L172,104.68l-.16-.05-2.72-.58a.54.54,0,0,0-.22,0l-2.48.4a.49.49,0,0,0-.16,0l-2.5,1.2a.71.71,0,0,0-.17.11l-1.7,1.71-.09.1-1.38,2.22a.64.64,0,0,0-.08.19l-.58,2.53a.29.29,0,0,0,0,.09l-.3,3.62v.12l.3,2.84a.29.29,0,0,0,0,.09l.74,2.78a.76.76,0,0,0,.06.16l1.16,2a.4.4,0,0,0,.1.12l1.77,1.78a.57.57,0,0,0,.16.11l2.49,1.27a.73.73,0,0,0,.21.06l2.22.21a.33.33,0,0,0,.14,0l2.78-.36a.6.6,0,0,0,.19-.06l2.47-1.22a.62.62,0,0,0,.2-.16l1.7-2.13.07-.12,1.2-2.5a.86.86,0,0,0,.06-.23l.18-3v-5.78A.37.37,0,0,0,177.63,112Z" transform="translate(-0.02)"/><path class="cls-17" d="M229.72,137.74l-1.37,1.19-.08.06-2.56,1.56-.17.07-2.57.63h0l-2.63.49h-.06l-2,.15h-.09l-2.58-.18-.1,0-2.55-.64-.07,0-3.08-1.16-.13-.07L207.08,138,207,138l-2.15-2.42a.38.38,0,0,1-.09-.12l-1.34-2.57,0-.08-.86-2.48,0-.16-.22-3.17V95.47a.6.6,0,0,1,.6-.6h9.77a.6.6,0,0,1,.6.6v29.38l.38,2.59a.75.75,0,0,0,0,.16l.73,1.63a.8.8,0,0,0,.15.21l1.41,1.23a.52.52,0,0,0,.19.11l2,.72.14,0,2,.18h.11l2-.18a.61.61,0,0,0,.18-.05l2-.83.07,0,2-1.2a.61.61,0,0,0,.17-.15l1.45-1.84a.5.5,0,0,0,.1-.19l.76-2.32a.27.27,0,0,0,0-.12l.3-2.61V95.47a.6.6,0,0,1,.61-.6h10a.6.6,0,0,1,.6.6v44.72a.6.6,0,0,1-.6.6h-8.68a.6.6,0,0,1-.61-.6v-2A.6.6,0,0,0,229.72,137.74Z" transform="translate(-0.02)"/><path class="cls-17" d="M253.57,140.19V95.47a.6.6,0,0,1,.6-.6h8.93a.59.59,0,0,1,.59.6v3l2.06-1.87.08-.06L268.4,95a.59.59,0,0,1,.14-.06l3-.89.11,0,2.8-.26h.11l3.14.27.12,0,2.77.77.15.07,2.37,1.44.08.06L285,97.83l.05.06L286,99a.6.6,0,0,0,.87,0l1.49-1.49.08-.07,2.1-1.46.07,0,2.23-1.16.12,0,2.58-.67.07,0,3.08-.37h.13l2.87.26.1,0,2.79.79.06,0,2.57,1,.14.08,2.3,1.74.08.07,1.78,2a.61.61,0,0,1,.07.1l1.49,2.49a.61.61,0,0,1,.05.12l.86,2.67a.5.5,0,0,1,0,.12l.26,2.59a.13.13,0,0,1,0,.06v32.33a.6.6,0,0,1-.6.6h-9.78a.6.6,0,0,1-.6-.6V110a.58.58,0,0,0,0-.19l-.82-2.39a.72.72,0,0,0-.12-.21l-1.49-1.66a.56.56,0,0,0-.24-.16l-1.77-.66-.14,0-1.68-.17a.33.33,0,0,0-.14,0l-1.71.21-.15,0-1.45.6a.57.57,0,0,0-.13.08L292,106.58a.38.38,0,0,0-.11.11l-1.2,1.55a.58.58,0,0,0-.1.19l-.61,2a.51.51,0,0,0,0,.13l-.15,2v27.62a.6.6,0,0,1-.6.6H279a.6.6,0,0,1-.6-.6V111.55l-.37-3.08a.52.52,0,0,0-.1-.26l-1.43-2.13a.54.54,0,0,0-.19-.18l-1.7-1a.62.62,0,0,0-.19-.07l-1.89-.35a.67.67,0,0,0-.2,0l-2.21.35a.56.56,0,0,0-.18.07l-1.94,1a.38.38,0,0,0-.13.09l-1.46,1.36a.38.38,0,0,0-.11.14l-1.18,2a.62.62,0,0,0-.07.23l-.29,2.28a.22.22,0,0,0,0,.08v28.06a.6.6,0,0,1-.6.6h-10A.6.6,0,0,1,253.57,140.19Z" transform="translate(-0.02)"/></svg>